<!-- icon666.com - MILLIONS vector ICONS FREE --><svg id="Layer_1" viewBox="0 0 32 32" xmlns="http://www.w3.org/2000/svg" data-name="Layer 1"><path d="m11.6 5.25a5.69 5.69 0 0 0 -5.15.92 1 1 0 0 0 -.45.83v2.6a11.4 11.4 0 0 0 -3.55 1.56 1 1 0 0 0 -.45.84v14a1 1 0 0 0 1.55.83c4.59-3.06 9.94-.93 11.47-.21a.94.94 0 0 0 .28.08 1 1 0 0 0 .35.23 1 1 0 0 0 .35.07v-17.43c-.86-1.57-2.3-3.57-4.4-4.32zm-2.6 5.6a1 1 0 0 1 1.21-.73 6 6 0 0 1 2.66 1.52 1 1 0 1 1 -1.37 1.46 4.09 4.09 0 0 0 -1.77-1 1 1 0 0 1 -.73-1.25zm0 4a1 1 0 0 1 1.21-.73 6 6 0 0 1 2.66 1.52 1 1 0 1 1 -1.37 1.46 4.09 4.09 0 0 0 -1.77-1 1 1 0 0 1 -.73-1.25zm-5 9.45v-11.75a9.39 9.39 0 0 1 2-.88v9.33a1 1 0 0 0 1.55.83 3.75 3.75 0 0 1 3.39-.69 6.47 6.47 0 0 1 3 2.93 13.7 13.7 0 0 0 -9.94.23z" fill="#000000" style="fill: rgb(6, 89, 166);"></path><path d="m29.55 11.17c-4.22-2.81-8.8-2-11.55-1.11v16.13c2.24-.85 6.6-1.93 10.45.64a1 1 0 0 0 1.55-.83v-14a1 1 0 0 0 -.45-.83zm-3.73 9.21a11.89 11.89 0 0 0 -4.54.13h-.21a1 1 0 0 1 -.21-2 13.87 13.87 0 0 1 5.31-.14 1 1 0 1 1 -.35 2zm0-5a11.89 11.89 0 0 0 -4.54.13h-.21a1 1 0 0 1 -.21-2 13.87 13.87 0 0 1 5.31-.14 1 1 0 0 1 -.35 2z" fill="#000000" style="fill: rgb(6, 89, 166);"></path></svg>