<!-- icon666.com - MILLIONS vector ICONS FREE --><svg viewBox="0 0 520 520" xmlns="http://www.w3.org/2000/svg"><g id="_8-" data-name="8-"><path d="m297.841 399.035c-6.631-11.548-9.7-30.232-8.65-52.63.017-.236.025-.475.025-.715a10 10 0 0 0 -9.892-10h-.111c-.111 0-.222 0-.332 0a9.956 9.956 0 0 0 -3.326.685 45.983 45.983 0 0 1 -32.494-.072 10 10 0 0 0 -13.449 9.861c1.081 22.512-1.984 41.287-8.63 52.867a10 10 0 0 0 8.673 14.978h59.514a10 10 0 0 0 8.672-14.979z" fill="#c86422" style="fill: rgb(255, 206, 65);"></path><path d="m309.558 150.758a10 10 0 0 0 -8.072-6.806l-22.47-3.266-10.048-20.36a10 10 0 0 0 -17.935 0l-10.049 20.361-22.47 3.265a10 10 0 0 0 -5.542 17.056l16.259 15.85-3.838 22.378a10 10 0 0 0 14.51 10.542l20.097-10.566 20.1 10.566a10 10 0 0 0 14.509-10.542l-3.839-22.379 16.26-15.848a10 10 0 0 0 2.528-10.251z" fill="#efd634" style="fill: rgb(255, 206, 65);"></path><path d="m357.9 466.464-5.069-32.618a23.312 23.312 0 0 0 -23.152-19.832h-140.547a23.311 23.311 0 0 0 -23.152 19.831l-5.069 32.619a10 10 0 0 0 9.881 11.536h177.229a10 10 0 0 0 9.881-11.536z" fill="#e19530" style="fill: rgb(255, 206, 65);"></path><path d="m363.661 42h-208.5a10 10 0 0 0 -10 10.076c.576 76.035 12.453 147.557 33.444 201.391 10.24 26.263 22.137 47.033 35.36 61.733 14.39 16 29.681 24.11 45.446 24.11s31.056-8.112 45.447-24.11c13.222-14.7 25.119-35.47 35.359-61.733 20.97-53.779 32.844-125.215 33.442-201.161 0-.1 0-.2 0-.306a10 10 0 0 0 -9.998-10zm-72 140.039 6.375 37.168-33.38-17.549a10 10 0 0 0 -9.306 0l-33.379 17.548 6.377-37.167a10 10 0 0 0 -2.876-8.851l-27-26.323 37.318-5.423a10 10 0 0 0 7.53-5.47l16.68-33.816 16.689 33.816a10 10 0 0 0 7.529 5.47l37.318 5.423-27 26.323a10 10 0 0 0 -2.878 8.851z" fill="#e19530" style="fill: rgb(255, 206, 65);"></path><g fill="#230b00"><path d="m443.265 75.673h-60.154q.449-11.749.545-23.673h21.749a10 10 0 0 0 0-20h-292a10 10 0 1 0 0 20h21.749q.089 11.919.545 23.673h-58.963a31.4 31.4 0 0 0 -29.205 42.949l39.336 99.5a70.78 70.78 0 0 0 53.487 43.478l33.113 5.707c12.9 30.006 28.206 52.317 45.027 66.034 1.968 16.152 3.277 50.395-8.886 64.611-3.54 4.138-7.923 6.065-13.794 6.065h-6.682a33.259 33.259 0 0 0 -33.033 28.3l-5.547 35.683h-10.962a10 10 0 0 0 0 20h239.633a10 10 0 0 0 0-20h-10.962l-5.547-35.689a33.259 33.259 0 0 0 -33.033-28.3h-6.681c-5.871 0-10.254-1.927-13.8-6.065-12.161-14.215-10.854-48.455-8.885-64.609 16.78-13.682 32.054-35.918 44.934-65.815l34.393-5.927a70.784 70.784 0 0 0 53.488-43.475l39.335-99.5a31.4 31.4 0 0 0 -29.2-42.95zm-299.515 166.215a50.666 50.666 0 0 1 -38.284-31.117l-39.335-99.5a11.4 11.4 0 0 1 10.605-15.6h59.993c3.617 55.624 13.326 107.318 28.286 149.88zm185.931 182.126a13.36 13.36 0 0 1 13.27 11.368l5.07 32.618h-177.229l5.07-32.619a13.362 13.362 0 0 1 13.27-11.367zm-90.081-78.324a56 56 0 0 0 39.614 0c-.818 16.977.175 41.292 9.955 58.324h-59.514c9.772-17.028 10.761-41.345 9.945-58.324zm91.3-95.856c-19.694 50.508-45.75 79.476-71.49 79.476s-51.8-28.968-71.489-79.476c-20.621-52.869-32.198-122.934-32.765-197.834h208.5c-.567 74.9-12.146 144.965-32.756 197.834zm122.969-138.564-39.335 99.5a50.666 50.666 0 0 1 -38.284 31.117l-22.528 3.883c15-42.6 24.738-94.38 28.362-150.1h61.181a11.4 11.4 0 0 1 10.6 15.6z" fill="#230b00" style="fill: rgb(255, 206, 65);"></path><path d="m331.048 143.775a10 10 0 0 0 -8.073-6.806l-37.319-5.423-16.688-33.816a10 10 0 0 0 -17.935 0l-16.69 33.816-37.318 5.423a10 10 0 0 0 -5.542 17.057l27 26.323-6.375 37.167a10 10 0 0 0 14.51 10.542l33.382-17.548 33.379 17.548a10 10 0 0 0 14.51-10.542l-6.375-37.167 27-26.323a10 10 0 0 0 2.534-10.251zm-47.26 25.925a10 10 0 0 0 -2.876 8.851l3.839 22.378-20.1-10.565a10 10 0 0 0 -9.306 0l-20.1 10.565 3.837-22.378a10 10 0 0 0 -2.876-8.851l-16.259-15.849 22.47-3.265a10 10 0 0 0 7.529-5.471l10.054-20.364 10.048 20.361a10 10 0 0 0 7.53 5.471l22.47 3.265z" fill="#230b00" style="fill: rgb(255, 206, 65);"></path></g></g></svg>