<!-- icon666.com - MILLIONS vector ICONS FREE --><svg version="1.1" id="Layer_1" xmlns="http://www.w3.org/2000/svg" xmlns:xlink="http://www.w3.org/1999/xlink" x="0px" y="0px" viewBox="0 0 512 512" style="enable-background:new 0 0 512 512;" xml:space="preserve"><g><g><path d="M495.594,415.73h-33.369V229.648h33.067c13.303,0,20.667-13.9,14.5-24.582L446.924,96.175 c-2.928-5.07-8.337-8.194-14.192-8.194H307.974c-4.205,0-6.834,4.553-4.731,8.194l10.802,18.71 c5.635,9.76-8.49,17.535-13.963,8.565l-29.894-51.776c-6.306-10.918-22.089-10.898-28.383,0l-29.897,51.78 c-5.515,9.025-19.573,1.153-13.958-8.571l10.802-18.71c2.102-3.641-0.526-8.194-4.731-8.194H79.266 c-5.855,0-11.265,3.124-14.192,8.195L2.207,205.067c-6.16,10.67,1.183,24.582,14.5,24.582h33.067V415.73H16.404 c-9.051,0-16.388,7.337-16.388,16.388c0,9.05,7.337,16.388,16.388,16.388h479.19c9.05,0,16.388-7.337,16.388-16.388 C511.982,423.068,504.645,415.73,495.594,415.73z M242.651,192.855h26.695c9.051,0,16.388,7.337,16.388,16.388 c0,9.051-7.337,16.388-16.388,16.388h-26.695c-9.051,0-16.388-7.337-16.388-16.388C226.263,200.193,233.6,192.855,242.651,192.855 z M150.901,383.642h-45.369c-9.051,0-16.388-7.337-16.388-16.388s7.337-16.388,16.388-16.388h45.369 c9.05,0,16.388,7.337,16.388,16.388S159.952,383.642,150.901,383.642z M150.901,329.592h-45.369 c-9.051,0-16.388-7.337-16.388-16.388s7.337-16.388,16.388-16.388h45.369c9.05,0,16.388,7.337,16.388,16.388 S159.952,329.592,150.901,329.592z M316.264,415.73h-120.53V313.204c0-9.051,7.337-16.388,16.388-16.388h87.754 c9.05,0,16.388,7.337,16.388,16.388V415.73z M406.466,383.642h-45.368c-9.051,0-16.388-7.337-16.388-16.388 s7.337-16.388,16.388-16.388h45.368c9.05,0,16.388,7.337,16.388,16.388S415.516,383.642,406.466,383.642z M406.466,329.592 h-45.368c-9.051,0-16.388-7.337-16.388-16.388s7.337-16.388,16.388-16.388h45.368c9.05,0,16.388,7.337,16.388,16.388 S415.516,329.592,406.466,329.592z" fill="#000000" style="fill: rgb(6, 89, 166);"></path></g></g></svg>