<svg version="1.1" xmlns="http://www.w3.org/2000/svg" xmlns:xlink="http://www.w3.org/1999/xlink" x="0px" y="0px" viewBox="0 0 1077 240" enable-background="new 0 0 1077 240" xml:space="preserve" width="1077" height="240" preserveAspectRatio="none"><g id="BG" /><g id="Coral" /><g id="Sand_BG" /><g id="Right_BG_Fish" /><g id="Left_BG_Fish" /><g id="Left_Orange_and_Purple_Fish" /><g id="Starfish" /><g id="White_Frame_Drop_Shadow" /><g id="White_Frame_BG" /><g id="Submit_Button_1_" /><g id="Left_Tool_Bar_Tab" /><g id="Right_Info_Tab" /><g id="Top_Tab" /><g id="Left_Tools" /><g id="Orange_Crab" /><g id="Anchor" /><g id="Treasure_Chest" /><g id="Keyboard" /><g id="Header" /><g id="Header_Buttons" /><g id="Progress_Indicator_1_" /><g id="Title" /><g id="Problem_Screen" /><g id="Teacher_Rating_Design" /><g id="Layer_25"><polygon fill="#F7C796" points="1075.6,138.7 1021.9,1.1 72.4,1.1 1.4,138.7 0,138.7 0,240 1077,240 1077,138.7 	" /><g><g><path fill="#DEAE7F" d="M632.4,153.2c5-1.4,10.3-1.5,15.3-0.2C642.7,154.4,637.4,154.5,632.4,153.2L632.4,153.2z" /></g><g><path fill="#DEAE7F" d="M737.3,176c6-1.4,12.2-1.4,18.2,0C749.5,177.4,743.2,177.4,737.3,176L737.3,176z" /></g><g><path fill="#DEAE7F" d="M870.9,172.7c9.2-1.3,18.5-1.2,27.7,0.2C889.5,174.2,880.1,174.1,870.9,172.7L870.9,172.7z" /></g><g><path fill="#DEAE7F" d="M609.1,171.8c-7.2,1.4-14.7,1.4-21.9,0C594.4,170.4,601.9,170.4,609.1,171.8L609.1,171.8z" /></g><g><path fill="#DEAE7F" d="M408.9,154.5c-9.5,1.4-19.1,1.4-28.6,0C389.8,153.1,399.5,153.1,408.9,154.5L408.9,154.5z" /></g><g><path fill="#DEAE7F" d="M138.3,161.1c4.8-1.4,9.9-1.4,14.6,0C148.1,162.5,143,162.5,138.3,161.1L138.3,161.1z" /></g><g><path fill="#DEAE7F" d="M365,170.5c-8.4,1.4-16.9,1.4-25.3,0C348.1,169.1,356.7,169.1,365,170.5L365,170.5z" /></g><g><path fill="#DEAE7F" d="M999.5,163.8c-10.8,1.4-21.8,1.4-32.6,0C977.8,162.4,988.7,162.4,999.5,163.8L999.5,163.8z" /></g><g><path fill="#DEAE7F" d="M1031.5,127.2c-5.2,1.4-10.7,1.4-16,0C1020.7,125.8,1026.2,125.9,1031.5,127.2L1031.5,127.2z" /></g><g><path fill="#DEAE7F" d="M988.4,173.3c-5.2,1.4-10.7,1.4-16,0C977.7,172,983.2,172,988.4,173.3L988.4,173.3z" /></g><g><path fill="#DEAE7F" d="M121,100c-3.6,1.6-7.8,1.8-11.5,0.7C113,99,117.2,98.8,121,100L121,100z" /></g><g><path fill="#DEAE7F" d="M42.5,130.6c9.5-1.4,19.1-1.4,28.6,0C61.6,131.9,51.9,131.9,42.5,130.6L42.5,130.6z" /></g><g><g><path fill="#DEAE7F" d="M771,152.1c8.7-1.2,17.7-1.1,26.4,0.4C788.6,153.7,779.7,153.6,771,152.1L771,152.1z" /></g><g><path fill="#DEAE7F" d="M609.1,171.8c-7.2,1.4-14.7,1.4-21.9,0C594.4,170.4,601.9,170.4,609.1,171.8L609.1,171.8z" /></g><g><path fill="#DEAE7F" d="M395.6,149.8c4.7-1.2,9.8-1.1,14.4,0.4C405.3,151.5,400.3,151.4,395.6,149.8L395.6,149.8z" /></g><g><path fill="#DEAE7F" d="M408.9,154.5c-9.5,1.4-19.1,1.4-28.6,0C389.8,153.1,399.5,153.1,408.9,154.5L408.9,154.5z" /></g><g><path fill="#DEAE7F" d="M250.9,156c3.2-1.4,7-1.4,10.2,0C257.8,157.4,254.1,157.4,250.9,156L250.9,156z" /></g><g><path fill="#DEAE7F" d="M159.5,166.2c8.8-1.3,17.8-1.2,26.6,0.2C177.3,167.8,168.3,167.7,159.5,166.2L159.5,166.2z" /></g><g><path fill="#DEAE7F" d="M138.3,161.1c4.8-1.4,9.9-1.4,14.6,0C148.1,162.5,143,162.5,138.3,161.1L138.3,161.1z" /></g><g><path fill="#DEAE7F" d="M365,170.5c-8.4,1.4-16.9,1.4-25.3,0C348.1,169.1,356.7,169.1,365,170.5L365,170.5z" /></g><g><path fill="#DEAE7F" d="M999.5,163.8c-10.8,1.4-21.8,1.4-32.6,0C977.8,162.4,988.7,162.4,999.5,163.8L999.5,163.8z" /></g><g><path fill="#DEAE7F" d="M42.5,130.6c9.5-1.4,19.1-1.4,28.6,0C61.6,131.9,51.9,131.9,42.5,130.6L42.5,130.6z" /></g></g></g></g><g id="Layer_26" /></svg>