<svg version="1.1" xmlns="http://www.w3.org/2000/svg" xmlns:xlink="http://www.w3.org/1999/xlink" x="0px" y="0px" viewBox="0 0 133 154" enable-background="new 0 0 133 154" xml:space="preserve" width="133" height="154" preserveAspectRatio="none"><g id="BG" /><g id="Coral" /><g id="Sand_BG" /><g id="Right_BG_Fish" /><g id="Left_BG_Fish" /><g id="Left_Orange_and_Purple_Fish" /><g id="Starfish" /><g id="White_Frame_Drop_Shadow" /><g id="White_Frame_BG" /><g id="Submit_Button_1_" /><g id="Left_Tool_Bar_Tab" /><g id="Right_Info_Tab" /><g id="Top_Tab" /><g id="Left_Tools" /><g id="Orange_Crab" /><g id="Anchor" /><g id="Treasure_Chest" /><g id="Keyboard" /><g id="Header" /><g id="Header_Buttons" /><g id="Progress_Indicator_1_" /><g id="Title" /><g id="Problem_Screen" /><g id="Teacher_Rating_Design" /><g id="Layer_26"><g><ellipse opacity="0.23" fill="#59361F" cx="51" cy="139.3" rx="36" ry="13.7" /><polyline fill="none" stroke="#6B738C" stroke-width="1.8833" stroke-linejoin="round" stroke-miterlimit="10" points="
			109.9,67.2 109.9,87.5 46.2,86.4 		" /><g><path fill="#22B35F" d="M101.7,55.6c-0.6,1.5-1,3.1-1,4.8c0,6.4,5,11.6,11.2,11.6c4.4,0,8.2-2.6,10-6.4L101.7,55.6z" /><path fill="#A3CE54" d="M90.2,52.9c1.3-2.7,11.6-0.6,23.1,4.8s19.7,12,18.4,14.7c-1.3,2.7-11.6,0.6-23.1-4.8
				C97.1,62.2,88.9,55.7,90.2,52.9 M96.2,54.9c-0.8,1.8,5.2,6.3,13.4,10.2c8.2,3.9,15.6,5.6,16.4,3.9s-5.2-6.3-13.4-10.2
				S97,53.2,96.2,54.9" /><path fill="none" stroke="#46B535" stroke-width="0.3281" stroke-miterlimit="10" d="M92.2,53.4c1.1-2.4,10.6-0.3,21.1,4.7
				s18.2,10.9,17.1,13.3c-1.1,2.4-10.6,0.3-21.1-4.7S91,55.8,92.2,53.4" /><path fill="#22B35F" d="M123,60.4c0-6.4-5-11.6-11.2-11.6c-4.5,0-8.4,2.8-10.1,6.8l20.1,9.9C122.6,64,123,62.3,123,60.4z" /><g><path fill="#28D160" d="M103.1,57.2c0.8-4.9,6.4-8.5,11.1-6.7C109.5,51.1,106,53.5,103.1,57.2L103.1,57.2z" /></g></g><path fill="#939EB3" d="M25.5,139.5c0-13.2,10.6-24,23.6-24s23.6,10.7,23.6,24C58.4,146.7,43.4,148,25.5,139.5z" /><path fill="#97A3B8" d="M49.8,130.9c7.6,0,14.3-2.7,17.7-6.6c-4.3-5.4-10.9-8.8-18.3-8.8c-7,0-13.3,3.1-17.6,8
			C34.6,127.9,41.6,130.9,49.8,130.9z" /><path fill="#97A3B8" d="M67.4,124.3c-3.4,3.9-10,6.6-17.7,6.6c-8.1,0-15.1-3-18.3-7.4c-3.7,4.2-6,9.8-6,15.9
			c17.9,8.5,32.9,7.2,47.3,0C72.8,133.7,70.8,128.5,67.4,124.3z" /><path fill="#4A495E" d="M53.8,121.1c-2,1.3-5.2,1.3-7.7-0.2l0.7-45.4h5.7L53.8,121.1z" /><ellipse fill="#FFD45C" cx="49.5" cy="46.1" rx="48.2" ry="45.1" /><g><path fill="#FFEB85" d="M12.9,34.9C14.4,16.2,34,1.8,51.9,9.4c-4.4,0.6-8.4,1.3-12.2,2.4C27.9,15.5,19.7,24.8,12.9,34.9
				L12.9,34.9z" /></g><polyline fill="none" stroke="#6B738C" stroke-width="1.8833" stroke-linecap="round" stroke-linejoin="round" stroke-miterlimit="10" points="
			105.9,91.8 105.5,110.6 52,97.2 		" /><polyline fill="none" stroke="#6B738C" stroke-width="1.8833" stroke-linecap="round" stroke-linejoin="round" stroke-miterlimit="10" points="
			84.2,101.5 83.8,124.4 51.2,105.7 		" /><g><path fill="#5C5B75" d="M46.6,100.8c2.4,0.7,4.5,1,6.9,0.2C51.7,102.9,48.3,102.5,46.6,100.8L46.6,100.8z" /></g><g><path fill="#5C5B75" d="M46.6,109.1c2.4,0.7,4.5,1,6.9,0.2C51.7,111.2,48.3,110.9,46.6,109.1L46.6,109.1z" /></g><g><path fill="#5C5B75" d="M46.4,92.8c2.4,0.7,4.5,1,6.9,0.2C51.5,94.9,48.2,94.6,46.4,92.8L46.4,92.8z" /></g><g><circle fill="#FF6647" cx="106.8" cy="88.5" r="8.4" /><g><path fill="#FF9473" d="M99.1,88.8c0.2-4.3,4.4-8,8.7-7.3C103.8,82.4,100.9,85.1,99.1,88.8L99.1,88.8z" /></g></g><g><g><circle fill="#5FCFB3" cx="85.2" cy="93.6" r="18" /><path fill="#377BE7" d="M84.5,99.2c7.8,1,14.9-0.4,18.5-3.3c0.1-0.6,0.1-1.2,0.1-1.9c-4,2.2-11,2.5-18.4,0.5
					c-7.2-2-12.9-5.6-15.3-9.4c-1,1.9-1.7,3.9-2,6.1C70.1,95,76.6,98.2,84.5,99.2z" /><path fill="#2695E7" d="M84.8,94.6c7.4,2,14.4,1.7,18.4-0.5c0-0.1,0-0.3,0-0.4c0-2.9-0.7-5.6-1.9-8c-2.8,1.7-7.4,2.5-12.4,1.9
					c-8-0.9-14.2-4.8-13.8-8.7c-2.4,1.6-4.3,3.8-5.7,6.3C71.9,88.9,77.6,92.6,84.8,94.6z" /><path fill="#2695E7" d="M84.5,99.2c-7.9-1-14.4-4.2-17.1-8c-0.1,0.8-0.2,1.6-0.2,2.4c0,1.5,0.2,3,0.6,4.4
					c2.9,3.8,9,6.9,16.4,7.8c6.2,0.8,12-0.1,15.9-2.2c1.5-2.3,2.5-4.9,2.9-7.7C99.5,98.8,92.4,100.3,84.5,99.2z" /><path fill="#42A5ED" d="M84.2,105.9c-7.3-1-13.5-4.1-16.4-7.8c0.4,1.5,0.9,2.9,1.6,4.2c2.8,2.4,6.8,4.5,11.3,5.8
					c5.2,1.5,10.3,1.6,14.3,0.7c2-1.3,3.8-3,5.1-5C96.2,105.7,90.5,106.7,84.2,105.9z" /><path fill="#2591E0" d="M80.8,108c-4.5-1.3-8.5-3.4-11.3-5.8c3,5.6,9,9.4,15.8,9.4c3.6,0,7-1.1,9.8-2.9
					C91,109.6,86,109.5,80.8,108z" /><path fill="#2695E7" d="M85.2,75.7c-2.7,0-5.3,0.6-7.6,1.7c0.7,4.4,7.7,7.9,16.3,7.9c2.4,0,4.7-0.3,6.7-0.8
					C97.5,79.2,91.8,75.7,85.2,75.7z" /><path fill="#42A5ED" d="M77.7,77.4c-0.9,0.4-1.8,0.9-2.6,1.5c-0.4,4,5.8,7.9,13.8,8.7c5,0.5,9.6-0.3,12.4-1.9
					c-0.2-0.4-0.4-0.8-0.6-1.2c-2.1,0.5-4.3,0.8-6.7,0.8C85.4,85.2,78.4,81.8,77.7,77.4z" /></g><path fill="#45ACF7" d="M69.7,96.3c0.2-0.8,0.4-1.5,0.5-2.3l-0.9-0.7C69.4,94.3,69.5,95.3,69.7,96.3z" /><path fill="#2695E7" d="M72.2,88.2l-1.5-1.4c-0.9,2-1.4,4.2-1.3,6.5l0.9,0.7c0.2-0.8,0.4-1.6,0.6-2.3
				C71.2,90.4,71.6,89.3,72.2,88.2z" /><path fill="#45ACF7" d="M76.7,82.6l-1.2-1.6c-2.1,1.5-3.7,3.6-4.8,5.9l1.5,1.4C73.3,86,74.8,84.2,76.7,82.6z" /><path fill="#61C5FF" d="M75.5,80.9l1.2,1.6c0.9-0.7,1.8-1.4,2.8-2l-0.9-1.3C77.4,79.7,76.4,80.2,75.5,80.9z" /><path fill="#45ACF7" d="M78.5,79.2l0.9,1.3c1.5-0.9,3.1-1.7,4.8-2.4C82.1,78.1,80.2,78.5,78.5,79.2z" /></g></g></g></svg>