<svg version="1.1" xmlns="http://www.w3.org/2000/svg" xmlns:xlink="http://www.w3.org/1999/xlink" x="0px" y="0px" viewBox="0 0 218 165" enable-background="new 0 0 218 165" xml:space="preserve" width="218" height="165" preserveAspectRatio="none"><g id="BG" /><g id="Coral" /><g id="Sand_BG" /><g id="Right_BG_Fish" /><g id="Left_BG_Fish" /><g id="Left_Orange_and_Purple_Fish" /><g id="Starfish" /><g id="White_Frame_Drop_Shadow" /><g id="White_Frame_BG" /><g id="Submit_Button_1_" /><g id="Left_Tool_Bar_Tab" /><g id="Right_Info_Tab" /><g id="Top_Tab" /><g id="Left_Tools" /><g id="Orange_Crab" /><g id="Anchor" /><g id="Treasure_Chest" /><g id="Keyboard" /><g id="Header" /><g id="Header_Buttons" /><g id="Progress_Indicator_1_" /><g id="Title" /><g id="Problem_Screen" /><g id="Teacher_Rating_Design" /><g id="Layer_26"><g><path opacity="0.23" fill="#59361F" d="M174.2,129.3c-10.9,0-20.8,1.2-28.4,3.2c-6.4-5.4-12.9-9.2-12.9-9.2l-58.5-4l-33.1,8.2
			l2.2,9.1l-36.2,6.3l-2.3,3l3.3,3l37.2-6c0,0,15,10,52.9,3l11.3,4l10,13.3c0,0,34,4,38-9.6c5.1,0.6,10.7,1,16.6,1
			c23.5,0,42.6-5.7,42.6-12.6C216.8,134.9,197.8,129.3,174.2,129.3z" /><g><ellipse fill="#6B738C" cx="170.6" cy="135.5" rx="32.3" ry="13.8" /><path fill="#6B738C" d="M200.8,46.3l2.1,89.2h-64.6l-2.1-58.8c0-8.3,12.1-33.9,33.2-40.4S201.5,35.6,200.8,46.3z" /><path fill="#7A84A1" d="M147,76.9c-5.7-6.8-0.8-20.3,10.8-30c11.4-9.5,25.2-11.9,31.1-5.6l5.7-6c-5.3-2.6-13.8-2.7-25.3,0.9
				c-21.1,6.6-33.2,32.1-33.2,40.4c0,0,1.8,5.8,6.7,10.3l6-8.4C148.2,78.2,147.6,77.6,147,76.9z" /><ellipse transform="matrix(0.7689 -0.6394 0.6394 0.7689 0.9449 121.2018)" fill="#4A495E" cx="168.1" cy="59.3" rx="27.5" ry="16.1" /><g><path fill="#4A495E" d="M201.9,93.6c-11.8,19-35,25.7-56,20.1c-2.9-0.8-5.8-1.7-8.6-2.8c2.6,0.7,6.2,1.6,8.8,2
					C166.9,117.3,188.7,111,201.9,93.6L201.9,93.6z" /></g><ellipse fill="#4A495E" cx="190.6" cy="119.6" rx="2.8" ry="3.8" /><ellipse fill="#4AB1FF" cx="189.8" cy="119.6" rx="2.8" ry="3.8" /><ellipse fill="#69DAFF" cx="189.9" cy="119.6" rx="2.3" ry="3.1" /><ellipse opacity="0.48" fill="none" cx="189.8" cy="119.6" rx="2.8" ry="3.8" /><g><ellipse fill="#4A495E" cx="190.6" cy="134.2" rx="2.8" ry="3.7" /><ellipse fill="#94D1FF" cx="189.8" cy="134.2" rx="2.8" ry="3.7" /><ellipse fill="#4AB1FF" cx="189.8" cy="134.2" rx="2.8" ry="3.7" /><ellipse fill="#69DAFF" cx="189.9" cy="134.2" rx="2.2" ry="3" /></g><line fill="none" stroke="#4A495E" stroke-width="0.7796" stroke-miterlimit="10" x1="155.3" y1="133.1" x2="155.3" y2="147.7" /><g><ellipse fill="#4A495E" cx="155.8" cy="133.5" rx="2" ry="2.4" /><ellipse fill="#94D1FF" cx="155.2" cy="133.5" rx="2" ry="2.4" /><ellipse fill="#4AB1FF" cx="155.2" cy="133.5" rx="2" ry="2.4" /><ellipse fill="#69DAFF" cx="155.3" cy="133.5" rx="1.6" ry="1.9" /></g><g><polygon fill="#BCBEC0" points="155.3,48.3 164.3,87.4 162.6,87 154.3,49.7 				" /><path fill="#939598" d="M141.2,14.5c0,0,0.2-6.1,3.8-6.6c3.7-0.6,5.1,5.3,5.1,5.3s7.3,1.3,4.4,9.9c0,0,8.4,3.6,3.4,13.5
					c0,0,4.1,6.5-1.4,12.7l-1.7,0.9l8.8,38.8l-6.3,1.2l-7-39.4c0,0-9.8-1-8.9-11.5c0,0-5.7-4.1-1.7-13.5
					C139.7,25.9,135.5,20,141.2,14.5z" /><path fill="#BCBEC0" d="M160.3,89.5c-0.6,0.8-22.4-62.7-27.8-64.6c-5.7-1.9,22.2,67.2,22.2,67.2L160.3,89.5z" /><path fill="#BCBEC0" d="M145.5,60.2c0,0-13.4,0.3-13.7-13.8c0,0-9.8-2.9-4.8-14.6c0,0-6.5-4.3-1.4-9.5c0,0-1.5-7.6,2.5-8.8
					c4-1.2,7.2,5.2,7.2,5.2s6.5,0.4,5.2,7.6c0,0,9.6,2.9,4.9,13.4C145.4,39.6,156.4,51.5,145.5,60.2z" /><g><path fill="#939598" d="M148,57.7c-4.1-9.9-7.6-20.2-12.9-29.5c-0.7-0.9-1.6-2.7-2.7-2.9c-0.3,0.2-0.3,1.3-0.2,1.7
						c0.6,5.3,2.5,10.4,4.1,15.5c1.9,5.8,3.9,11.7,6,17.5c-2.3-5.7-4.5-11.5-6.5-17.3c-1.7-5.5-4.1-11.1-4.3-16.9
						C134.2,17,147.2,55.3,148,57.7L148,57.7z" /></g></g><path fill="#7A84A1" d="M200.8,46.3c0.3-4.9-1.8-8.7-6.2-10.9l-5.7,6c0.1,0.1,0.2,0.2,0.3,0.4c1.4,1.7,2.2,3.8,2.3,6.2l9.4-0.6
				C200.9,46.7,200.8,46.3,200.8,46.3z" /><g><path fill="#A660DB" d="M179.9,82.3l-0.6-17c0-0.4,0.1-0.8,0.4-1c0.7-0.6,1.9-1.7,1.9-3.1c0-1.1-0.6-2.1-1.8-3.2
					c-0.5-0.4-0.9-0.9-1.2-1.4c-3.6,0.2-7.4-1.5-10.3-4.9c-2.7-3-3.9-6.6-3.1-9c0.7-2.4,2.5-3.8,4.8-4c0.1,0,0.2,0,0.3,0
					c0,0,0,0,0,0c1.3-2.2,3.7-3.1,6.5-2.7c3.2,0.5,4,2.8,4.7,4.5c0.8,2,1.3,3.4,4.7,3.2c3.3-0.2,4-2.2,4.2-3.4
					c-1.1,0.5-2.5,0.7-4.1,0.3c-2.5-0.6-4.3-2-4.9-3.9c-0.4-1.2-0.1-2.5,0.7-3.4c0.6-0.7,2.1-1.7,5.1-1c1.9,0.4,3.4,1.7,4.3,3.2
					c0.3-1.2,0.2-2.7-0.9-3.6c-1.5-1.3-3-1.1-6-0.5c-1.8,0.4-4,0.8-6.7,0.8c-3.8,0-5.7-2.6-5.8-5.2c-0.2-3.3,2.1-6.9,6.2-7.4
					c3.4-0.4,5.6,1.3,7.5,2.8c2.2,1.7,3.9,3,7.1,1.8c2.4-0.9,3.6-2.9,3.3-5.4c-0.3-2.2-1.5-4.5-4.1-5.3l-0.1,2.5
					c0,0.3-0.1,0.5-0.2,0.7c-0.4,0.5-3.7,5.3-7.2,4c-2.9-1.1-3.5-3.2-3.1-4.9c0.6-2.5,3.6-4.9,7.7-5.1l-0.6-8.8c0-0.6,3.3-1,3.3-0.4
					l0.1,9.5c3.6,0.7,6,3.6,6.4,7.4c0.4,3.5-1.4,6.5-4.8,7.8c-4.4,1.7-7-0.3-9.3-2.1c-1.8-1.4-3.4-2.6-5.9-2.3
					c-2.8,0.3-4.3,2.7-4.2,4.9c0,0.7,0.4,3,3.5,3c0,0,0,0,0,0c2.5,0,4.5-0.4,6.3-0.8c3-0.6,5.6-1.1,8,1c1.9,1.7,2.4,4.7,1.1,7.3
					c-0.2,0.3-0.4,0.7-0.6,1c0.1,0.6,0.2,1.3,0.1,1.9c-0.2,2.5-2,5.4-6.4,5.6c-5.1,0.3-6.2-2.6-7-4.7c-0.7-1.8-1.1-2.8-2.9-3.1
					c-1.8-0.3-3,0.3-3.6,1c1.2,0.6,2.2,1.6,2.8,2.9c1.1,2.5,0.3,4.1-0.8,4.7c-1.4,0.8-3.3,0.1-4.5-1.5c-0.8-1.1-1.1-2.7-0.8-4.2
					c-0.7,0.2-1.5,0.8-2,2.2c-0.5,1.7,0.6,4.5,2.7,6.8c2.2,2.5,4.9,3.9,7.5,4.1c-0.5-1.7-0.4-3.6,0.4-5.2c1-2.2,3.1-3.2,5.6-2.8
					c1.9,0.3,3.3,1.9,3.3,3.9c0,2.1-1.5,4.7-5.6,5.9c0.1,0.1,0.1,0.1,0.2,0.2c1.8,1.6,2.6,3.3,2.6,5c0,1.6-0.9,3.2-2.3,4.5l0.5,16.4
					C182.3,82.8,179.9,82.9,179.9,82.3z M182.5,48.4c-1.4,0-2.1,0.8-2.4,1.6c-0.5,1.1-0.6,2.6-0.1,4c3.1-0.7,4.5-2.4,4.5-3.9
					c0-0.7-0.4-1.5-1.3-1.6C182.9,48.4,182.7,48.4,182.5,48.4z M171.7,41.3c-0.2,1,0,2.1,0.4,2.6c0.6,0.8,1.2,1,1.4,0.9
					c0.2-0.1,0.3-0.7-0.2-1.7C173,42.3,172.4,41.7,171.7,41.3z M185.3,34.5c-0.7,0-1.2,0.2-1.5,0.5c-0.3,0.3-0.2,0.8-0.2,1.1
					c0.3,0.8,1.2,1.8,3.2,2.3c1.5,0.3,2.5,0,3.2-0.5c-0.6-1.5-1.8-2.8-3.4-3.1C186.1,34.5,185.7,34.5,185.3,34.5z M189.5,13.3
					c-3.1,0.1-5.3,1.8-5.6,3.3c-0.3,1.2,0.7,1.8,1.6,2.1c1.2,0.5,3.2-1.6,4.2-2.8L189.5,13.3z" /><ellipse transform="matrix(0.9978 -6.623168e-02 6.623168e-02 0.9978 0.291 12.6127)" fill="#6A3D8C" cx="190.4" cy="1.9" rx="1.7" ry="0.7" /><g><path fill="#6A3D8C" d="M189.3,10.9c0.2,0.8,0.2,1.5,0.2,2.3C189.3,12.5,189.3,11.7,189.3,10.9
						C189.3,10.9,189.3,11.7,189.3,10.9z" /></g><g><path fill="#6A3D8C" d="M192.1,11.2c0.2,0.8,0.2,1.6,0.1,2.4C192,12.8,192,12,192.1,11.2C192.1,11.2,192,12,192.1,11.2z" /></g><g><path fill="#6A3D8C" d="M191.5,35.6c-0.2,0.9-0.7,1.8-1.5,2.2C190.6,37.1,191,36.4,191.5,35.6L191.5,35.6z" /></g><g><path fill="#6A3D8C" d="M192.6,38.5c-0.5,0.8-1.2,1.7-2.2,1.8C191.3,39.9,191.9,39.1,192.6,38.5L192.6,38.5z" /></g><g><path fill="#6A3D8C" d="M169.4,41.1c0.7-0.4,1.7-0.2,2.3,0.2C170.9,41.2,170.2,41,169.4,41.1L169.4,41.1z" /></g><g><path fill="#6A3D8C" d="M170.3,38.6c0.8-0.4,1.9,0,2.5,0.6C172,38.8,171.2,38.6,170.3,38.6L170.3,38.6z" /></g><g><path fill="#6A3D8C" d="M177.6,54.2c0.3,0.8,0.5,1.6,1.1,2.3C177.9,56,177.6,55,177.6,54.2L177.6,54.2z" /></g><g><path fill="#C491F2" d="M193.1,12.2c3.2,0.9,5.4,4.4,4.5,7.7C197.9,16.6,195.9,13.6,193.1,12.2L193.1,12.2z" /></g><g><path fill="#C491F2" d="M187.3,29.4c3.2-0.8,6.1,1.8,6.1,5c0,0-0.3-1.1-0.3-1.1C192.4,30.8,189.9,29.2,187.3,29.4L187.3,29.4z" /></g><g><path fill="#C491F2" d="M182.5,37.4c1.6,1.8,4,2.6,6.3,2.2C186.6,40.6,183.7,39.6,182.5,37.4L182.5,37.4z" /></g><g><path fill="#C491F2" d="M170.9,39.1c2.4,0,4.3,2.4,4.6,4.7C174.6,41.7,173.1,39.7,170.9,39.1L170.9,39.1z" /></g><g><path fill="#6A3D8C" d="M180,54c0.3,0.8,0.7,1.5,1.3,2.1C180.5,55.7,180,54.8,180,54C180,54,180,54.8,180,54z" /></g><g><path fill="#C491F2" d="M182.9,16.7c0.5,1.5,1.5,2.4,3,2.7C184.4,19.8,182.8,18.3,182.9,16.7L182.9,16.7z" /></g><g><path fill="#C491F2" d="M183.1,21.5c-3.3-1.5-7.2-1.4-9.3,1.9C175.4,19.7,180.1,19.5,183.1,21.5L183.1,21.5z" /></g><g><path fill="#C491F2" d="M174.3,36.5c2.3-1.1,5,0.4,6,2.6C178.9,37.2,176.7,35.9,174.3,36.5L174.3,36.5z" /></g><g><path fill="#C491F2" d="M181.8,46.7c1.9-0.7,4.1,0.5,4.3,2.6c0.2,1.6-0.1-0.1-0.5-0.7C185,47.2,183.4,46.6,181.8,46.7
						L181.8,46.7z" /></g></g><path fill="#7A84A1" d="M191.6,47.9c0.5,7.1-4.4,16.5-13.2,23.8c-10.5,8.7-22.9,11.5-29.5,7l-6,8.4c6.1,5.5,18.7,10.3,37.3-1.5
				c9.5-6.1,13.4-13.9,16.7-19.7c4.9-8.7,4.5-15.9,4.1-18.5L191.6,47.9z" /></g><g><path fill="#4A495E" d="M112.5,103.3c0,0,5.7-3.5,10.6,0.6c4.7,3.8,0.6,9.5,0.6,9.5L112.5,103.3z" /><path fill="#FFD45C" d="M60.7,143.8c25.2,3.1,49.4-7,49.4-7c10-12.4,8.8-28.9-3.6-38.4c-34.3-5.2-55.3,4.6-55.3,4.6L60.7,143.8z" /><path fill="#FFD45C" d="M107.3,98.6c4.4,1.5,26.1,10.3,45.4,43.6c0.2,0.4-1.6,1.6-1.6,1.6l-28.2,3.2l-9.7-14.7
				c0,0,4-25.2-6.4-33.6C106.7,98.5,106,98.2,107.3,98.6z" /><path fill="#C49D47" d="M119.1,139.7l2.6,18.2c0,0,28.4-0.6,31.5-10.5C156.3,137.6,138.4,132.9,119.1,139.7z" /><polyline fill="#E0BB56" points="121.7,157.9 110.3,137.3 110.8,124.5 121,138.9 			" /><path fill="#C49D47" d="M110.8,124.5l-7.1,1c0,0-16.1,3.8-38,3.8c0,0,1.3,8-2.1,14.8c0,0,24.3,2.8,43-6.3L110.8,124.5z" /><polygon fill="#363545" points="100.8,126 101.4,139.8 115.5,146.6 116,131.6 			" /><polygon fill="#4A495E" points="100.7,126 110.8,124.5 116.4,132 			" /><g><path fill="#C49D47" d="M63.8,98.9c9.6,1.6,15.7,10.3,16.8,19.6c0.7,4.5,1.1,9.1,0.5,13.7c-0.6,4.4-2,9.4-5.9,12
					c3.7-2.8,4.8-7.7,5.4-12.1c0.4-4.5,0.1-9.1-0.7-13.6C79,109.6,73,100.9,63.8,98.9L63.8,98.9z" /></g><g><path fill="#C49D47" d="M106.2,98.4c1.7,0.7,2.1,2.2,0.6,3.5c-1.6,1.5-3.9,1.9-5.6,3.1c-3.1,3.2,2.2,10,4.2,12.9
					c1.7,2.3,3.5,4.5,5.4,6.7c-2.1-2-4-4.1-5.8-6.4c-2.7-3.6-9.3-12.3-2.2-14.7C104.9,102.8,109.9,100.5,106.2,98.4L106.2,98.4z" /></g><polyline fill="#97A3B8" points="6.2,130.7 2.6,131.8 3.7,138.8 3.7,138.8 			" /><g><path fill="#4A495E" d="M39.4,114.7c0,0,1.6-9.8,13.9-12.5c0,0,9.4,4.9,11.8,19.7c1,5.8,1.6,17.1-1.7,22.3c0,0-6.2,0.1-15-3.1
					L39.4,114.7z" /><ellipse transform="matrix(0.9733 -0.2293 0.2293 0.9733 -27.8773 13.7022)" fill="#363545" cx="45" cy="126.8" rx="5.8" ry="14.8" /><ellipse transform="matrix(0.982 -0.1889 0.1889 0.982 -23.2181 10.5556)" fill="#363545" stroke="#4A495E" stroke-width="0.5053" stroke-miterlimit="10" cx="43.8" cy="127.1" rx="2.5" ry="5.8" /><polygon fill="#7C8596" points="5.8,131.8 3.9,138 8.8,137 10.7,130.7 				" /><polygon fill="#7C8596" points="24,128.1 18.4,129.3 16,135.6 21.3,134.5 				" /><polygon fill="#7C8596" points="38,125.3 32.8,126.3 28.7,133.2 35.7,131.7 				" /><path fill="#97A3B8" d="M42.3,123.4l-6.4,1.3c-0.3,2.7-1.6,5.5-3.6,8.3l11.8-2.4c0,0,0.9-1.3,0.4-4.1
					C44.3,125.3,43.7,124.2,42.3,123.4z" /><g><path fill="#363545" d="M59.4,107.7c-5.7,3.1-11.3,6.4-16.2,10.5C47.6,113.4,53.4,110,59.4,107.7L59.4,107.7z" /></g><g><path fill="#363545" d="M65.6,132c-5.5,1.4-11.4,1.4-17,0.3C54.3,132.5,59.9,132.5,65.6,132L65.6,132z" /></g><polyline fill="#97A3B8" points="1.2,135.8 3.8,138.8 2.7,131.8 				" /><path fill="#97A3B8" d="M21.3,127.7c-0.2,2.5-1,5.7-2.9,8.1l10.8-1.9c1.8-1.9,3.2-5.4,3.6-8.3L21.3,127.7z" /><path fill="#97A3B8" d="M18.9,128.1l-10.1,2c-0.1,2.1-1.4,5.9-2.8,8.3l9.7-2C17.2,134.7,18.6,130,18.9,128.1z" /></g></g></g></g></svg>