<svg version="1.1" xmlns="http://www.w3.org/2000/svg" xmlns:xlink="http://www.w3.org/1999/xlink" x="0px" y="0px" viewBox="0 0 68 179" enable-background="new 0 0 68 179" xml:space="preserve" width="68" height="179" preserveAspectRatio="none"><g id="BG" /><g id="Coral" /><g id="Sand_BG" /><g id="Right_BG_Fish" /><g id="Left_BG_Fish" /><g id="Left_Orange_and_Purple_Fish" /><g id="Starfish" /><g id="White_Frame_Drop_Shadow" /><g id="White_Frame_BG" /><g id="Submit_Button_1_" /><g id="Left_Tool_Bar_Tab" /><g id="Right_Info_Tab" /><g id="Top_Tab" /><g id="Left_Tools" /><g id="Orange_Crab" /><g id="Anchor" /><g id="Treasure_Chest" /><g id="Keyboard" /><g id="Header" /><g id="Header_Buttons" /><g id="Progress_Indicator_1_" /><g id="Title" /><g id="Problem_Screen" /><g id="Teacher_Rating_Design" /><g id="Layer_26"><g><polygon fill="#003D82" points="11.6,11.8 13.4,33.5 29.8,77 41.3,77 		" /><polygon fill="none" stroke="#939598" stroke-width="2" stroke-linecap="round" stroke-linejoin="round" stroke-miterlimit="10" points="
			36,90.8 44.4,76.1 27.5,76.1 		" /><polygon fill="#0057A7" points="40.4,1.2 55,2.5 41.3,77 29.8,77 		" /><rect x="1.2" y="90" fill="#2695E7" width="65.6" height="87.8" /><rect x="1.2" y="162.7" fill="#262262" width="65.6" height="15.1" /><polygon fill="#D1D3D4" points="38.6,96 33.3,96 32.2,89.6 40,89.8 		" /><circle fill="#262262" stroke="#FFD661" stroke-miterlimit="10" cx="34.6" cy="127.7" r="25.7" /><g><path fill="#FFFFFF" d="M12.4,173.4h4v1.5h-5.9v-9.2h1.9V173.4z" /><path fill="#FFFFFF" d="M23.1,171h-3.7v2.5h4.3v1.5h-6.2v-9.2h6.2v1.5h-4.3v2.2h3.7V171z" /><path fill="#FFFFFF" d="M28.2,172.7l2.1-7h2.1l-3.2,9.2h-2l-3.2-9.2h2.1L28.2,172.7z" /><path fill="#FFFFFF" d="M38.1,173.1h-3.3l-0.6,1.9h-2l3.4-9.2h1.8l3.5,9.2h-2L38.1,173.1z M35.2,171.5h2.3l-1.2-3.5L35.2,171.5z" /><path fill="#FFFFFF" d="M49.1,175h-1.9l-3.7-6.1v6.1h-1.9v-9.2h1.9l3.7,6.1v-6.1h1.9V175z" /><path fill="#FFFFFF" d="M55.6,172.5c0-0.2,0-0.3-0.1-0.4c0-0.1-0.1-0.2-0.3-0.4c-0.1-0.1-0.3-0.2-0.6-0.3
				c-0.2-0.1-0.5-0.2-0.9-0.3c-0.4-0.1-0.8-0.3-1.2-0.5c-0.4-0.2-0.7-0.4-1-0.6c-0.3-0.2-0.5-0.5-0.7-0.8c-0.2-0.3-0.2-0.7-0.2-1.1
				c0-0.4,0.1-0.7,0.3-1.1c0.2-0.3,0.4-0.6,0.7-0.8c0.3-0.2,0.7-0.4,1.1-0.5c0.4-0.1,0.9-0.2,1.4-0.2c0.5,0,1,0.1,1.4,0.2
				c0.4,0.1,0.8,0.3,1.1,0.6s0.5,0.6,0.7,0.9c0.2,0.3,0.2,0.7,0.2,1.1h-1.9c0-0.2,0-0.4-0.1-0.5c-0.1-0.2-0.2-0.3-0.3-0.4
				s-0.3-0.2-0.5-0.3c-0.2-0.1-0.4-0.1-0.7-0.1c-0.2,0-0.5,0-0.7,0.1c-0.2,0.1-0.3,0.1-0.5,0.2c-0.1,0.1-0.2,0.2-0.3,0.3
				c-0.1,0.1-0.1,0.3-0.1,0.4c0,0.3,0.2,0.6,0.5,0.8c0.3,0.2,0.8,0.4,1.4,0.6c0.5,0.2,0.9,0.3,1.3,0.5c0.4,0.2,0.7,0.4,1,0.6
				c0.3,0.2,0.4,0.5,0.6,0.8s0.2,0.6,0.2,1c0,0.4-0.1,0.8-0.2,1.1c-0.2,0.3-0.4,0.6-0.7,0.8c-0.3,0.2-0.6,0.4-1.1,0.5
				c-0.4,0.1-0.9,0.2-1.4,0.2c-0.3,0-0.6,0-0.9-0.1c-0.3-0.1-0.6-0.1-0.9-0.2c-0.3-0.1-0.5-0.2-0.8-0.4s-0.4-0.4-0.6-0.6
				c-0.2-0.2-0.3-0.5-0.4-0.8c-0.1-0.3-0.1-0.6-0.1-0.9h1.9c0,0.3,0,0.5,0.1,0.7s0.2,0.4,0.4,0.5c0.2,0.1,0.4,0.2,0.6,0.3
				s0.5,0.1,0.7,0.1c0.2,0,0.5,0,0.6-0.1c0.2-0.1,0.3-0.1,0.5-0.2s0.2-0.2,0.3-0.3C55.5,172.8,55.6,172.7,55.6,172.5z" /></g><path fill="#F7941E" d="M23.5,116.7c-16.2,11.2,1,30.9,1,30.9S2.7,129.7,20,114.9" /><g><defs><circle id="SVGID_00000109014698485431865930000013618738216354646418_" cx="34.6" cy="127.7" r="25.7" /></defs><clipPath id="SVGID_00000016071082503844111190000013104893968448686215_"><use xlink:href="#SVGID_00000109014698485431865930000013618738216354646418_" overflow="visible" /></clipPath><polygon clip-path="url(#SVGID_00000016071082503844111190000013104893968448686215_)" fill="#FFD661" points="42.2,153.6 
				60.4,163.2 56.9,142.9 71.6,128.6 51.3,128.1 42.2,107.2 33.1,128.1 10.7,128.6 27.5,142.9 24,163.2 			" /></g><g><path fill="#262262" d="M43.1,138.3v-6.4h5.3c0.6,0.1,1.8,0.8,1.8,2.4c0,1.4-0.7,1.7-2,2l0.5,0.7h3.9v2.2h-4.6l-2.3-2.4v2.4h-5.3
				L40,138h-2.3l-0.4,1.3h-2.7l1.7-5.1h-2.7v5.1h-2.5v-5.1h-3.3c-0.7,0.1-0.2,0.6-0.2,0.6s0.4,0.4,1.4,1.6c1,1.2-0.1,3-1.1,3h-6.5
				V137h4.4c0.8,0,0-0.7,0-0.7s-1.6-1.3-1.6-2.8c0-1.5,1.5-1.7,1.5-1.7h14.8L43.1,138.3z M38.9,133.6l-1.1,2.7h2L38.9,133.6z
				 M47.6,133.7h-1.9v1.5h2C47.6,135.2,48.5,134.4,47.6,133.7z" /></g><g><path fill="#262262" d="M25.9,139.8l0,1.8h-2.3c0,0-0.4-0.1-0.1,0.3c0.3,0.4,1.3,1.5,1.3,1.5c0.3,0.4,0.4,0.9,0.2,1.5
				c-0.3,0.6-1,0.7-1,0.7h-5.2V144h3.5c0,0,0.5,0,0.1-0.5c-0.4-0.5-1.5-1.5-1.5-2.5c0-0.4,0.3-1.2,0.8-1.2H25.9z" /><path fill="#262262" d="M24.1,139.8l0,1.8h1.3l0,4.1h5.4v-1.7h-3.6v-0.6h2.1v-1.1h-2.1v-0.6h3.1l0-1.7
				C30.3,139.8,24.2,139.7,24.1,139.8z" /><path fill="#262262" d="M34.6,139.8l2,5.9h-2.2l-0.4-1.1h-1.6l-0.4,1.1h-2.1l1.3-4.1h-1.4l0-1.7
				C29.8,139.8,34.5,139.8,34.6,139.8z M32.4,143.5H34l-0.8-2.1L32.4,143.5z" /><path fill="#262262" d="M40.3,139.8c0.2,0,1.8,0.5,1.8,1.9c0,1.4-1.8,1.7-1.8,1.7l0.6,0.6h3.2v1.6h-3.8l-1.7-1.8v1.8h-2.1l0-5.9
				C36.4,139.8,40.3,139.8,40.3,139.8z M38.4,141.3v1.1H40c0.5-0.3,0.5-0.7,0-1.1C40,141.3,38.4,141.3,38.4,141.3z" /><path fill="#262262" d="M47.6,144v1.7h-3.3c-1.6,0-2.6-1.7-2.6-2.9c0-1.1,0.9-2.9,2.3-2.9h3.7v1.7h-2.9c0,0-0.8-0.1-0.8,1.2
				c0,1.3,0.9,1.1,0.9,1.1H47.6z" /><path fill="#262262" d="M47.5,141.7h-1.3v-1.7h3v2H51v-2h1.8v5.7h-1.8v-2h-1.6v2h-1.8C47.5,145.7,47.5,141.6,47.5,141.7z" /><path fill="none" stroke="#38418F" stroke-width="0.25" stroke-miterlimit="10" d="M24.1,139.8h-2.5c-0.5,0-0.8,0.8-0.8,1.2
				c0,1.1,1.1,2.1,1.5,2.5c0.4,0.5-0.1,0.5-0.1,0.5h-3.5v1.7h5.2c0,0,0.8-0.1,1-0.7c0.3-0.7,0.1-1.1-0.2-1.5c0,0-0.9-1.1-1.3-1.5
				c-0.3-0.4,0.1-0.3,0.1-0.3h1.8v4.1H27" /></g><path fill="#F7941E" d="M27.1,112.2l-3.4-1l0.5,1.1l-4.6-0.9l1.7,1.6c0,0-2.6-0.3-4.2,2.1c0,0,1.9,0,3.1-0.1l2.9,2l-0.4,2l4.1-2.6
			l1.9-2.8L27.1,112.2z" /><path d="M25.3,114.9c0.6-2.4,4.1-2.8,8.2-2s7.1,3.7,6.9,4.9c-0.2,1.3-4.1,2.8-8.2,2C28,119,24.7,117.1,25.3,114.9z" /><ellipse transform="matrix(0.1886 -0.9821 0.9821 0.1886 -87.1694 127.4597)" fill="#FFFFFF" cx="33.5" cy="116.5" rx="3.5" ry="7.7" /><path fill="#FFFFFF" d="M37.6,117.5c-1.7-4.2-8.4-9.9-10-9.2c-1.6,0.7,0,7.3,0,7.3s-5.1,4-4,5.7S33.3,120.5,37.6,117.5z" /><path fill="#2695E7" d="M38.9,115.5c0,0,4.8,3.2-2.6,3.2C36.3,118.7,39.5,117.7,38.9,115.5z" /><g><path fill="#D1D3D4" d="M34.7,113.2c-2.2-0.2-10.7-0.4-7.2,3.5c1.6,1.5,3.7,2.4,5.7,3.2c-2.1-0.7-4.2-1.6-5.8-3.1
				c-0.5-0.5-1.1-1.2-0.9-2C27.3,112.4,32.5,113,34.7,113.2L34.7,113.2z" /></g></g></g></svg>