<svg version="1.1" xmlns="http://www.w3.org/2000/svg" xmlns:xlink="http://www.w3.org/1999/xlink" x="0px" y="0px" viewBox="0 0 213 116" enable-background="new 0 0 213 116" xml:space="preserve" width="213" height="116" preserveAspectRatio="none"><g id="BG" /><g id="Coral" /><g id="Sand_BG" /><g id="Right_BG_Fish" /><g id="Left_BG_Fish" /><g id="Left_Orange_and_Purple_Fish" /><g id="Starfish" /><g id="White_Frame_Drop_Shadow" /><g id="White_Frame_BG" /><g id="Submit_Button_1_" /><g id="Left_Tool_Bar_Tab" /><g id="Right_Info_Tab" /><g id="Top_Tab" /><g id="Left_Tools" /><g id="Orange_Crab" /><g id="Anchor" /><g id="Treasure_Chest" /><g id="Keyboard" /><g id="Header" /><g id="Header_Buttons" /><g id="Progress_Indicator_1_" /><g id="Title" /><g id="Problem_Screen" /><g id="Teacher_Rating_Design" /><g id="Layer_26"><g><path opacity="0.23" fill="#59361F" d="M211.7,102.9c0,0-64.4,21.6-210.5,7l46.3-30.1C47.5,79.7,157.3,77.4,211.7,102.9z" /><g><g><g><polygon fill="#414042" points="160.5,81.4 174.5,104.1 157.1,83.8 160.5,81.4 					" /></g><g><polygon fill="#414042" points="41.6,84.5 26.6,102.4 38.1,82.1 41.6,84.5 					" /></g><path fill="#414042" d="M45.8,44.4c0,0-3.4-2-7.7-5.8c-0.9-2-2.3-3.4-3.9-3.7c-4.3-0.8-8.9,3.4-10.8,15.3
					c-1.5,9.2,0.5,17.3,4.9,18.1c1.2,0.2,2.5-0.2,3.8-1.1c5.9-0.9,18.2-3,18.7-4.6c0.8-2.1,3.8-16.9,3.8-16.9L45.8,44.4z" /><path fill="#DFEFFA" d="M62.1,6C44.3,1.2,32.8,1.1,18.2,1.1l26.4,49.7L3.5,84.3c0,0,85.8,21.4,195.1-1.4
					c9.1-1.9,12.1-2.5,0.8-9.4c-13.5-8.2-51-28.5-93.6-43.4C92.3,25.5,86,12.4,62.1,6z" /><g><g><path fill="#A6BDCF" d="M65.4,26.7c4.2,6.9,2.3,18.2-7.3,18.4c-10-0.1-17.4-12.8-12.5-21.6C50.7,15.1,61.6,19.3,65.4,26.7
							L65.4,26.7z M65.3,26.8C60.4,18,47,16.7,45.4,28.4c-0.7,6,2.9,12.4,8.4,15C64.9,48.1,70.7,35.6,65.3,26.8L65.3,26.8z" /></g></g><path fill="#27AAE1" d="M9.9,77.8l-6.4,6.5c0,0,45.4,11.1,105.3,9.1l-4.8-6.4C72.2,87.4,35.3,83.1,9.9,77.8z" /><path fill="#27AAE1" d="M202.1,75.2c-6.9,1.6-23.4,5.1-44.2,7.7l-1.6,6.7c13.5-1.6,27.6-3.8,42.3-6.8
					C207,81.2,210.2,80.5,202.1,75.2z" /><g><path fill="#1D73B3" d="M108.7,93.4c0,0-4.9-6.4-4.9-6.4s0.1,0.1,0.1,0.1c-31.5,0.4-63.3-2.1-94.1-9c0,0,0.3-0.1,0.3-0.1
						c-2.2,2.1-4.4,4.2-6.6,6.3c0,0-0.1-0.1-0.1-0.1c2.1-2.2,4.1-4.5,6.2-6.7l0.1-0.1l0.2,0c23.3,4.2,46.7,7.4,70.3,8.7
						c7.9,0.4,15.8,0.7,23.7,0.7c0,0,0,0.1,0,0.1S108.8,93.3,108.7,93.4L108.7,93.4L108.7,93.4z" /></g><g><path fill="#1D73B3" d="M202.1,75.3c-14.6,3.5-29.3,6.7-44.2,8.1c0,0,0.4-0.3,0.4-0.3c-0.6,2.2-1.3,4.4-2,6.6c0,0-0.1,0-0.1,0
						c0.4-2.4,0.8-4.7,1.3-7.1c0,0,0.3-0.1,0.3-0.1c7.4-1.3,14.8-2.1,22.2-3.3C187.4,78.1,195.1,76.4,202.1,75.3L202.1,75.3z" /></g><g><path fill="#6D6E71" d="M35.7,37.4c-2.8,3.4-4.8,7.6-5.6,12c-0.5,3.3-0.6,6.7-0.8,10c0,1.1-0.1,2.2,0.1,3.4
						c-0.6-2.2-0.6-4.5-0.6-6.7C28.7,49.2,30.6,42.1,35.7,37.4L35.7,37.4z" /></g><polygon fill="#A6BDCF" points="44.6,50.8 101.8,58.8 42,53.1 				" /><g><path fill="#F2F9FF" d="M34.1,5C55.6,3.5,78.3,12.7,93,28.4C75.9,15.4,55.5,7.1,34.1,5L34.1,5z" /></g><path fill="#414042" d="M136.2,63.3c-7.4,1.7-3.1,4.8,5.8,5.3c26.5,2,32.9-4.8,34.4-7.8c-4-2-8.2-4.2-12.8-6.4
					C159.4,60.6,142.6,61.8,136.2,63.3z" /><path fill="#51A7E7" d="M147.9,61.2l-4.2,7.5c2.1,0.1,4,0.2,5.8,0.2l4.8-9.2C152.2,60.3,150.1,60.8,147.9,61.2z" /><path fill="#51A7E7" d="M163.6,54.3c-1,1.5-2.7,2.7-4.8,3.7l-4.6,10.9c3.4-0.1,6.3-0.4,8.8-0.9l4.7-11.7
					C166.3,55.7,164.9,55,163.6,54.3z" /><circle fill="#414042" cx="173.1" cy="102.3" r="6.1" /><circle fill="#414042" cx="27.3" cy="101.9" r="6.6" /><path fill="#F2F9FF" d="M150,50.4c-13-5.8-26.4-11.5-40.5-14c17.2,5.8,33.7,13.4,50,21.2l2.4-1.4
					C158.1,54.2,154.1,52.3,150,50.4z" /><path fill="#6EBEFA" d="M162,56.2l-2.3,1.5c2.1,1,4.1,2,6.2,3l0.9-1.9C165.2,57.9,163.5,57,162,56.2z" /><path fill="#6D6E71" d="M166.7,58.7l-0.9,1.9c2.5,1.2,5,2.4,7.4,3.5l1.3-1.1C172,61.6,169.4,60.1,166.7,58.7z" /><path fill="#F2F9FF" d="M174.6,63.1l-1.3,1.1c4.8,2.3,9.6,4.5,14.4,6.7C183.4,68.1,179,65.6,174.6,63.1z" /></g><ellipse transform="matrix(2.127083e-02 -0.9998 0.9998 2.127083e-02 -76.2935 128.1603)" fill="#939598" cx="27.3" cy="103" rx="3.4" ry="3.5" /><ellipse transform="matrix(2.127083e-02 -0.9998 0.9998 2.127083e-02 66.5095 274.0357)" fill="#939598" cx="173.2" cy="103" rx="3.4" ry="3.5" /></g></g></g></svg>