<svg version="1.1" xmlns="http://www.w3.org/2000/svg" xmlns:xlink="http://www.w3.org/1999/xlink" x="0px" y="0px" viewBox="0 0 112 141" enable-background="new 0 0 112 141" xml:space="preserve" width="112" height="141" preserveAspectRatio="none"><g id="BG" /><g id="Coral" /><g id="Sand_BG" /><g id="Right_BG_Fish" /><g id="Left_BG_Fish" /><g id="Left_Orange_and_Purple_Fish" /><g id="Starfish" /><g id="White_Frame_Drop_Shadow" /><g id="White_Frame_BG" /><g id="Submit_Button_1_" /><g id="Left_Tool_Bar_Tab" /><g id="Right_Info_Tab" /><g id="Top_Tab" /><g id="Left_Tools" /><g id="Orange_Crab" /><g id="Anchor" /><g id="Treasure_Chest" /><g id="Keyboard" /><g id="Header" /><g id="Header_Buttons" /><g id="Progress_Indicator_1_" /><g id="Title" /><g id="Problem_Screen" /><g id="Teacher_Rating_Design" /><g id="Layer_26"><g><path opacity="0.23" fill="#59361F" d="M70.6,105.5c-14.9,0-27.8,3.5-34.7,8.7c-1.3-0.1-2.6-0.1-3.9-0.1c-16.9,0-30.6,5.4-30.6,12
			c0,6.6,13.7,12,30.6,12c5.3,0,10.3-0.5,14.6-1.5c6.7,2.2,15,3.5,23.9,3.5c22,0,39.9-7.7,39.9-17.3S92.7,105.5,70.6,105.5z" /><g><path fill="#97A3B8" d="M27,115.1c0-12,14.8-21.8,33.1-21.8s33.1,9.8,33.1,21.8C73,121.6,52,122.9,27,115.1z" /><path fill="#7A84A1" d="M62,97.8c-1.4,0.7-2.7,0.8-4,0l0-34.4h4L62,97.8z" /><path fill="none" d="M87.8,62.5c0-0.2,0-0.4,0-0.6C87.8,62.1,87.8,62.3,87.8,62.5z" /><path fill="#853150" d="M63.6,13.1c-4.9,0-7.3,3.2-7.3,6.3s4,5.7,8.9,5.7s8.9-2.5,8.9-5.7S68.5,13.1,63.6,13.1z" /><path fill="#853150" d="M65,37c-4.7,0-8.2,4.9-8.2,9.8s3.8,8.9,8.5,8.9s7.9-4.4,7.9-9.3S69.7,37,65,37z" /><path fill="#853150" d="M39.4,44c-3.7-3.1-7.9-4.2-9.4-2.5c-1.5,1.8,0.3,5.7,3.9,8.9c3.7,3.1,10.2,3.2,11.7,1.4
				C47.2,50.1,43.1,47.2,39.4,44z" /><path fill="#853150" d="M40.1,30.4c1.3,0.7,3.3,0.2,4.7-2.2c1.4-2.5,1.4-5.1,0.1-5.8S41.3,23,40,25.5
				C38.6,27.9,38.8,29.6,40.1,30.4z" /><path fill="#853150" d="M89.6,32.4c1.5,3.3,6.4,3.6,10.4,1.8c1.3-0.6,2.3-1.3,3.1-2.1c-4-1.6-8.4-5.3-8.5-7.5
				C90.9,26.4,88.2,29.2,89.6,32.4z" /><path fill="#853150" d="M95.2,51.9c-4.1,0-7.4,4.5-7.4,10.1c0,0.2,0,0.4,0,0.6c0.1,3.4,1.5,6.4,3.6,8.1c0.1,0.1,0.2,0.2,0.3,0.2
				c0.1-7.3,3-12.5,9.4-15.1C99.7,53.4,97.6,51.9,95.2,51.9z" /><path fill="#853150" d="M79.5,50.3c-1.8,0-2.3,1.1-2.3,3.1c0,2,0.6,4,2.3,4c1.8,0,3.4-1.6,3.4-3.5C82.9,51.9,81.3,50.3,79.5,50.3
				z" /><path fill="#853150" d="M80,17.8c1.1-0.7,1-2.7-0.2-4.4c-1.2-1.7-3-2.5-4.1-1.8c-1.1,0.7-1,2.7,0.2,4.4
				C77.1,17.8,78.9,18.6,80,17.8z" /><path fill="#853150" d="M45.1,12c0.3,1.3,2.4,2,4.7,1.5c2.3-0.5,4-2,3.7-3.3c-0.1-0.3-0.2-0.6-0.5-0.8c-2.9,0.9-5.6,1.4-7.9,1.8
				C45.1,11.5,45.1,11.7,45.1,12z" /><path fill="#853150" d="M25.1,35.7c3.3,1.8,7.2,1.2,8.5-1.3c1.4-2.5-0.2-6-3.6-7.8c-1.1-0.6-2.2-0.9-3.3-1
				c-1.3,2.4-3.3,4.4-5.4,5.9C21.8,33.1,23.1,34.7,25.1,35.7z" /><path fill="none" d="M65,37c-4.7,0-8.2,4.9-8.2,9.8s3.8,8.9,8.5,8.9s7.9-4.4,7.9-9.3S69.7,37,65,37z" /><path fill="none" d="M39.4,44c-3.7-3.1-7.9-4.2-9.4-2.5c-1.5,1.8,0.3,5.7,3.9,8.9c3.7,3.1,10.2,3.2,11.7,1.4
				C47.2,50.1,43.1,47.2,39.4,44z" /><path fill="none" d="M63.6,13.1c-4.9,0-7.3,3.2-7.3,6.3s4,5.7,8.9,5.7s8.9-2.5,8.9-5.7S68.5,13.1,63.6,13.1z" /><path fill="none" d="M79.5,50.3c-1.8,0-2.3,1.1-2.3,3.1c0,2,0.6,4,2.3,4c1.8,0,3.4-1.6,3.4-3.5C82.9,51.9,81.3,50.3,79.5,50.3z" /><path fill="none" d="M80,17.8c1.1-0.7,1-2.7-0.2-4.4c-1.2-1.7-3-2.5-4.1-1.8c-1.1,0.7-1,2.7,0.2,4.4C77.1,17.8,78.9,18.6,80,17.8
				z" /><path fill="none" d="M40.1,30.4c1.3,0.7,3.3,0.2,4.7-2.2c1.4-2.5,1.4-5.1,0.1-5.8S41.3,23,40,25.5C38.6,27.9,38.8,29.6,40.1,30.4
				z" /><path fill="#853150" d="M23.3,55.9c-2.8-4.1-7.8-5.5-11.1-3.2c-0.7,0.5-1.2,1-1.6,1.7c6.6,4.2,11.1,8.1,12.9,12.1
				C25.8,64,25.8,59.5,23.3,55.9z" /><path fill="none" d="M63.6,13.1c-4.9,0-7.3,3.2-7.3,6.3s4,5.7,8.9,5.7c4.9,0,8.9-2.5,8.9-5.7S68.5,13.1,63.6,13.1z" /><path fill="none" d="M39.4,44c-3.7-3.1-7.9-4.2-9.4-2.5s0.3,5.7,3.9,8.9c3.7,3.1,10.2,3.2,11.7,1.4C47.2,50.1,43.1,47.2,39.4,44z
				" /><path fill="none" d="M40.1,30.4c1.3,0.7,3.3,0.2,4.7-2.2c1.4-2.5,1.4-5.1,0.1-5.8S41.3,23,40,25.5C38.6,27.9,38.8,29.6,40.1,30.4
				z" /><path fill="none" d="M65,37c-4.7,0-8.2,4.9-8.2,9.8s3.8,8.9,8.5,8.9s7.9-4.4,7.9-9.3S69.7,37,65,37z" /><path fill="none" d="M80,17.8c1.1-0.7,1-2.7-0.2-4.4c-1.2-1.7-3-2.5-4.1-1.8c-1.1,0.7-1,2.7,0.2,4.4C77.1,17.8,78.9,18.6,80,17.8
				z" /><path fill="none" d="M79.5,50.3c-1.8,0-2.3,1.1-2.3,3.1c0,2,0.6,4,2.3,4c1.8,0,3.4-1.6,3.4-3.5C82.9,51.9,81.3,50.3,79.5,50.3z" /><path fill="#B24256" d="M103.1,32c-0.8,0.8-1.8,1.5-3.1,2.1c-4,1.8-8.9,1.6-10.4-1.8c-1.4-3.1,1.3-6,5-7.8
				c-3.7-5.7-4.4-14.7-4.4-14.7c-7.3-9.3-21.6-9-21.6-9c-4.3,4.3-10.1,7-15.4,8.5c0.2,0.2,0.4,0.5,0.5,0.8c0.3,1.3-1.4,2.8-3.7,3.3
				c-2.3,0.5-4.5-0.2-4.7-1.5c-0.1-0.3,0-0.5,0.1-0.8c-3.9,0.6-6.6,0.7-6.6,0.7c-8.6-0.3-11,11.3-11,11.3c-0.3,0.8-0.6,1.6-1,2.4
				c1.1,0.1,2.2,0.4,3.3,1c3.3,1.8,5,5.3,3.6,7.8c-1.4,2.5-5.2,3.1-8.5,1.3c-1.9-1-3.3-2.6-3.8-4.3c-4.9,3.5-7.2,4.4-7.2,4.4L9,51.4
				c0.5,1.1,1,2,1.6,3c0.4-0.7,1-1.2,1.6-1.7c3.3-2.3,8.3-0.9,11.1,3.2c2.5,3.6,2.5,8.1,0.1,10.6c1,0.5,2,0.8,2.9,1.1l0,0
				c0,0,2.6,1.1,6.9,2.6c0.9-2.3,5.7-2.8,10.8-1.1c4.1,1.3,7.1,3.6,7.9,5.7c4.6,0.7,9.5,1.1,14.4,1c3.2-0.6,6.4-1.3,9.4-1.9
				c1.5-5.2,7.2-8.8,9.1-1.7c2.8-0.5,4.9-0.9,6-1.1c0.6,0.1,1,0.1,0.8-0.1c-0.1-0.1-0.1-0.2-0.2-0.3c-2-1.7-3.4-4.6-3.6-8.1
				c0-0.2,0-0.4,0-0.6c0-5.6,3.3-10.1,7.4-10.1c2.4,0,4.5,1.5,5.8,3.9l9-7.3C110.8,41.4,106.8,35.8,103.1,32z M40,25.5
				c1.4-2.5,3.6-3.8,4.9-3.1s1.3,3.3-0.1,5.8c-1.4,2.5-3.3,3-4.7,2.2C38.8,29.6,38.6,27.9,40,25.5z M45.7,51.9
				c-1.5,1.8-8,1.7-11.7-1.4c-3.7-3.1-5.4-7.1-3.9-8.9s5.7-0.7,9.4,2.5C43.1,47.2,47.2,50.1,45.7,51.9z M65.3,55.6
				c-4.7,0-8.5-4-8.5-8.9S60.3,37,65,37s8.2,4.4,8.2,9.3S70,55.6,65.3,55.6z M65.2,25.1c-4.9,0-8.9-2.5-8.9-5.7s2.4-6.3,7.3-6.3
				s10.4,3.2,10.4,6.3S70.1,25.1,65.2,25.1z M75.9,16c-1.2-1.7-1.3-3.7-0.2-4.4c1.1-0.7,2.9,0.1,4.1,1.8c1.2,1.7,1.3,3.7,0.2,4.4
				C78.9,18.6,77.1,17.8,75.9,16z M79.5,57.4c-1.8,0-2.3-2-2.3-4c0-2,0.6-3.1,2.3-3.1c1.8,0,3.4,1.6,3.4,3.5
				C82.9,55.8,81.3,57.4,79.5,57.4z" /><path fill="#853150" d="M44,69.1c-5.1-1.7-9.9-1.2-10.8,1.1c4.6,1.6,11.3,3.5,18.7,4.6C51.1,72.7,48.1,70.4,44,69.1z" /><path fill="#853150" d="M75.7,73.9c3.4-0.7,6.5-1.3,9.1-1.7C82.9,65.1,77.3,68.7,75.7,73.9z" /><path fill="#853150" d="M54.8,67.9c-0.5,0.8-0.2,1.9,1.2,2.7c1.4,0.8,2.9,0.9,3.4,0.1c0.5-0.8-0.3-2.1-1.7-2.9
				C56.2,67,55.2,67.1,54.8,67.9z" /></g><g><path fill="#A5B2C9" d="M5.4,126.4c0-10.1,9.3-18.2,20.7-18.2s20.7,8.2,20.7,18.2C34.3,131.9,21.1,132.9,5.4,126.4z" /><path fill="#7A84A1" d="M28.3,111.7c-1.2,0.6-2.3,0.7-3.3,0l0-40.4h3.3L28.3,111.7z" /><g><path fill="#4F611E" d="M42.2,67.7c-1.1,0.7-1.9,2-1.9,3.6c0,2.3,1.6,4.1,3.6,4.1c0.7,0,1.4-0.2,1.9-0.6
					C44.5,73.3,42.1,69.5,42.2,67.7z" /><path fill="#4F611E" d="M19.1,70.6c3.3-1,4.4-4.8,3.4-8.1c-0.7-2.1-2.4-3.6-4.4-4.2c-0.2,0.1-0.3,0.1-0.3,0.1
					c-1.1,1.8-3.9,5-7.7,6.7c0,0.4,0.1,0.8,0.2,1.1C11.5,69.6,15.8,71.7,19.1,70.6z" /><path fill="#4F611E" d="M28.9,58.3c0,2.2,1.3,4.3,3.8,4.3c1.8,0,3.8-1.2,4.6-2.7c-2.2-0.5-6.1-3.1-6.9-4.5
					C29.4,56.1,28.9,57.1,28.9,58.3z" /><path fill="#4F611E" d="M12.3,83.9c2.5,0,4.6-1.6,4.6-3.5c0-1.9-2.1-3.5-4.6-3.5c-0.9,0-1.8,0.2-2.5,0.6
					c0.4,2.3-0.2,3.7-1.6,4.5C8.9,83.1,10.5,83.9,12.3,83.9z" /><path fill="#4F611E" d="M26.2,84.5c-2.9-0.2-3.5,1.9-3.5,4.2c0,0,0,0.1,0,0.1c1-1.6,7.3,0.4,7.4,2.2
					C30.7,90.3,30.3,84.9,26.2,84.5z" /><path fill="#7E872A" d="M40.3,71.3c0-1.6,0.8-2.9,1.9-3.6c-2.2-3.1-3.9-5.9-5-7.8c-0.9,1.5-2.8,2.7-4.6,2.7
					c-2.5,0-3.8-2.2-3.8-4.3c0-1.2,0.6-2.2,1.5-2.9c-5.2-0.1-10.9,2.4-12.2,3c2,0.5,3.7,2,4.4,4.2c1,3.3-11,7.1-12.1,3.8
					c-0.1-0.4-0.2-0.8-0.2-1.1c-2.6,3.3-3.5,4.3-3.7,6.5c-0.1,2.2,3.3,5.7,3.3,5.7l0,0c0.7-0.4,1.6-0.6,2.5-0.6
					c2.5,0,4.6,1.6,4.6,3.5c0,1.9-2.1,3.5-4.6,3.5c-1.8,0-3.4-0.8-4.1-1.9l-0.9,2.5c1.1,8.1,15.4,4.5,15.4,4.5c0,0,0-0.1,0-0.1
					c0-2.3,1.6-4.3,3.5-4.2c3.2,0,4.5,5.8,4,6.5c9.6-3.6,15-8.2,15-8.2c0.9-3.2,0.9-6,0.7-8.1c-0.6,0.4-1.2,0.6-1.9,0.6
					C41.9,75.4,40.3,73.6,40.3,71.3z" /><ellipse transform="matrix(0.4609 -0.8874 0.8874 0.4609 -49.7364 73.639)" fill="#4F611E" cx="35.7" cy="77.8" rx="2.1" ry="3" /><ellipse fill="#4F611E" cx="29.1" cy="69.9" rx="4.9" ry="3" /><ellipse fill="#4F611E" cx="22.3" cy="78.3" rx="2.1" ry="1.8" /><ellipse transform="matrix(0.7071 -0.7071 0.7071 0.7071 -47.5126 49.5555)" fill="#4F611E" cx="36.1" cy="82.1" rx="1.2" ry="1" /></g></g></g></g></svg>