<svg xmlns="http://www.w3.org/2000/svg" viewBox="0 0 600 900" width="600" height="900" preserveAspectRatio="none"><defs><style>.cls-1{fill:#b1b3b5;}.cls-2{fill:#f2e8aa;}.cls-3{fill:none;}.cls-4{fill:#146b45;}.cls-5{fill:#0b5430;}.cls-6{fill:#108342;}.cls-7{fill:#5d3213;}.cls-8{fill:#088d8d;}</style></defs><g id="downstairs_locked_Floor" data-name="downstairs locked Floor"><polygon class="cls-1" points="600 624.43 600 353.43 104.63 353.43 104.63 434.3 101.34 434.3 101.34 546.03 104.63 546.03 104.63 624.43 600 624.43" /></g><g id="downstairs_floor" data-name="downstairs floor"><polygon class="cls-2" points="600 624.43 600 353.43 104.63 353.43 104.63 434.3 101.34 434.3 101.34 546.03 104.63 546.03 104.63 624.43 600 624.43" /></g><g id="foilage"><path class="cls-3" d="M103.33,576.67l-.19.1.2,4.91v-5.31C103.34,576.56,103.33,576.67,103.33,576.67Z" /><path class="cls-3" d="M424.89,334.94a10.54,10.54,0,0,1-1.66,1.83,5.69,5.69,0,0,1,1.52.16A9.36,9.36,0,0,1,424.89,334.94Z" /><path class="cls-3" d="M103.34,545.16a4.06,4.06,0,0,1-1.51-.41l1.22,29.8a5.76,5.76,0,0,1,.29,1.82Z" /><path class="cls-3" d="M516.46,348.76l-7.55-.06-21.41-.18h-.34l-46-.38.33,8.43H600c.39-2.36-.32-4.72,0-7.09Zm61.27.57h0l0,0Z" /><polygon class="cls-3" points="218.22 627.52 224.51 627.47 218.23 627.47 218.22 627.52" /><path class="cls-3" d="M425.42,638.89a10.54,10.54,0,0,1,1.66,1.83,9.4,9.4,0,0,1-.14-2A5.69,5.69,0,0,1,425.42,638.89Z" /><path class="cls-3" d="M191.41,352.44l-14.13-.11c0-.15.09-.29.14-.43l-7.65-.12a3.58,3.58,0,0,1,0,.48l-21.41-.17.16-.27s-.18.11-.5.27l-46-.38-2,49,.19.11a5.75,5.75,0,0,1-.28,2.11l-1.21,29.8a4.91,4.91,0,0,1,4.62.38V356.57h92.32a5.34,5.34,0,0,1,.34-1.51S191.14,357,191.41,352.44Z" /><path class="cls-3" d="M397.71,356.27a3.26,3.26,0,0,0-.32-.81,27.6,27.6,0,0,0,2.61,1.1h5.67l.07-2.43-.3-.09a2.79,2.79,0,0,0,.31-.24l.11-4.11-114.57-.94-7.55-.06-21.41-.18H262l-46-.38.33,8.43H398.94A2.82,2.82,0,0,0,397.71,356.27Zm-45.14-6.91v0h0Z" /><polygon class="cls-3" points="443.39 627.52 449.68 627.47 443.4 627.47 443.39 627.52" /><path class="cls-4" d="M137.42,336.4c1.06-1.08,2.77-3.26.69-4.33a4.23,4.23,0,0,0-1-.35A4.79,4.79,0,0,1,137.42,336.4Z" /><path class="cls-4" d="M97.73,335.88s0,.13,0,.31a7.53,7.53,0,0,1,1.63-2.42,1.5,1.5,0,0,0-1.21-1.22A7,7,0,0,1,97.73,335.88Z" /><path class="cls-4" d="M100.67,433.42l.67-33.67c-.61,1.81-3.89,7-9.5,4.93,0,0,1-4.1,4.1-4.83-1.54-.31-3.85-1.32-2.78-4.65,0,0,4.68-1.56,4,4.56.83.06,3.08,1.92,4.14,2.52l.62-46.35,43.44-2.5c.32-.15,3.2,2.5,3.2,2.5s.05-1.54,0-1.38l20.84,1.38c0-.15,0,.18,0,0l3-.79c-.06.14,4-.17,4,0l12,1.13c0-.14,3,.47,3,.32.3-2.46,6.53-7.84,6.53-7.84s-6.38.8-5.47-4.64c.36-2.18,4.28-1,5.68-.56-.81-.39-2.28-1.54-1.56-4.74.58-2.65,3.23,0,3.23,0s-1.33-5.2,2.21-7.57c1.2-.8,3.08,0,4.29.61a5.68,5.68,0,0,1,.43-.61,4.8,4.8,0,0,1,1.05.53l0,0c-.63-1.39-2.39-4.44-5.68-4.49-2.25,0-3.85,4.06-3.85,4.06a5.1,5.1,0,0,0-.82-.55c.55-1,.7-2.05-.57-2.7-2.83-1.45-5.41.79-5.41.79s-1.6-4.1-3.86-4.06c-4.26.08-5.95,5.17-5.95,5.17s-.79-3.66-2.72-1.75c-2.33,2.31-1.73,4.07-1.25,4.84-.92-1.16-3.6-4.24-5.08-2.61-2.09,2.3-1.16,4.19,0,5.4a8.89,8.89,0,0,1,1-2.09s8.86,1.62,4.82,12.69c0,0-7.24-4-6-10a11.74,11.74,0,0,0-2.92-.59c-.59-5.32-6.35-2.86-6.35-2.86s2.65-2.65,0-3.24c-3.2-.71-4.36.75-4.74,1.57.47-1.4,1.61-5.33-.56-5.69-5.44-.9-4.65,5.48-4.65,5.48s-.84-6.21-3.3-6.51c-5.1-.61-3,4.56-3,4.56s-3.12-1.33-4.43,1.2,2.12,5.12,2.12,5.12-5.35-.63-4.3,2.06l.12.29a12.11,12.11,0,0,0-3.39-.79,10.78,10.78,0,0,1-2.17,2.56,10.93,10.93,0,0,1-.95-2c-1,1.31-3.11,2.17-7.46.57,0,0,1.67-6.66,7.08-4.52a4.6,4.6,0,0,1,.83-1.75,6.06,6.06,0,0,0-1.71,1s-1.6-4.1-3.86-4.06c-4.26.07-6,5.17-6,5.17s-.79-3.66-2.72-1.75a5.86,5.86,0,0,0-1.51,2.24A14.3,14.3,0,0,0,117,335a5.32,5.32,0,0,0-1.15-.76c.23-1.52.18-3.64-1.86-3.44-3.17.32-4.12,3.6-4.12,3.6s-3.42-2.47-5.32-1.39a9.4,9.4,0,0,1,1.18.6s.6,6.88-7.82,4.06c0,1.69-.59,4-3.24,4.58,0,0-1.82-3.17,1.7-5.59a9.57,9.57,0,0,1-1.87-2.38,6,6,0,0,0-1,1.83s-3.57-2.58-5.45-1.32c-3.54,2.37-2.2,7.57-2.2,7.57s-2.65-2.65-3.24,0c-.71,3.2.75,4.35,1.57,4.74-1.4-.48-5.32-1.62-5.69.56-.9,5.44,5.48,4.64,5.48,4.64s-6.21.84-6.51,3.3c-.61,5.11,4.56,3,4.56,3s-1.33,3.12,1.2,4.43l.06,0c2.28-.64,5.46-.25,9.43,3.42,0,0-8.52,6.74-13.57-.44A8,8,0,0,1,83,363.14a5.09,5.09,0,0,0-3.45,1.39c-4,3.17,3.82,6,3.82,6s-4.37,1.19-5.25,3.66,6.78,3.29,6.78,3.29a3.54,3.54,0,0,0-1.83,3.79c.59,2.83,4.41.37,4.41.37A9.85,9.85,0,0,0,86.35,386c-.77-.38-1.65-.46-2,.94-.71,3.2.75,4.35,1.57,4.74-1.4-.48-5.33-1.62-5.69.56-.9,5.44,5.48,4.64,5.48,4.64s-6.21.84-6.51,3.3c-.61,5.11,4.56,3,4.56,3s-1.33,3.12,1.2,4.43a2.79,2.79,0,0,0,2.31.09,5,5,0,0,0-.29.61,13.77,13.77,0,0,0-1.06,4c1.27.65,4.1,2.73,1.92,7.71.11,1.62-.1,4.74-3.22,5.39,0,0-1.84-3.21,1.76-5.63-1.47-1.5-3.56-4.49-1.09-7.62-1.07-1.05-3.28-2.81-4.36-.71-1.45,2.83.8,5.41.8,5.41s-4.1,1.6-4.06,3.86c.07,4.26,5.17,5.95,5.17,5.95s-3.66.79-1.75,2.72c2.31,2.33,4.07,1.73,4.83,1.25-1.15.92-2.57,1.92-1.1,3.57s5.36-.58,5.36-.58-.39,1.51-.79,3.34l9.6,1.81,1.37-1.68c-.86-.12-3.76.58-4.93.15A26.83,26.83,0,0,1,100.67,433.42Zm95.24-103.14a4.48,4.48,0,0,1,1.11.57c1.13.79,2.53,2.56,1.09,6.18a9,9,0,0,1-1.6-1.49C195.45,334.28,194.5,332.36,195.91,330.28Zm-5,11.71s-.72,7.85-10.19,3.66C180.7,345.65,184.39,337.42,190.89,342Zm-32.57,9.66,7.65.12c-.05.14-.1.29-.14.43l-7.55-.06A3.6,3.6,0,0,0,158.32,351.65ZM137,351.7s-.07.1-.16.26h-.35A5.22,5.22,0,0,0,137,351.7ZM113,339s-2.94,4.47-7.27-1.08C105.69,337.92,110.54,334.17,113,339Zm-19.6,14.33s7,3.68-.54,10.81C92.82,364.14,86.64,357.57,93.36,353.33Zm5.88,56.42s1.16,5.49-3.1,6.38C96.14,416.13,93.85,412.19,99.24,409.75Zm-6.11,18.63s5.68,1.8,2.13,8.72C95.26,437.1,89.46,432.86,93.13,428.38Z" /><path class="cls-4" d="M137,351.7a5.22,5.22,0,0,1-.51.26h.35C137,351.8,137,351.7,137,351.7Z" /><path class="cls-4" d="M166,351.77l-7.65-.12a3.6,3.6,0,0,1,0,.49l7.55.06C165.87,352.06,165.92,351.91,166,351.77Z" /><path class="cls-5" d="M93.13,428.38c-3.67,4.48,2.13,8.72,2.13,8.72C98.81,430.18,93.13,428.38,93.13,428.38Z" /><path class="cls-5" d="M98.72,432.72,98.5,438c2.89.39,4.23-.75,4.84-2V433.1A4.91,4.91,0,0,0,98.72,432.72Z" /><path class="cls-5" d="M95.47,437.25a14,14,0,0,0,3,.79l.22-5.32C96.31,433.91,95.47,437.25,95.47,437.25Z" /><path class="cls-5" d="M99.24,409.75c-5.39,2.44-3.1,6.38-3.1,6.38C100.4,415.24,99.24,409.75,99.24,409.75Z" /><path class="cls-5" d="M86,412.82a2.82,2.82,0,0,1,0-.51,3.74,3.74,0,0,0-.56-.24l-.07.09C85.71,412.53,86,412.82,86,412.82Z" /><path class="cls-5" d="M86.42,419.78a9.7,9.7,0,0,1,1.34-.75,8.51,8.51,0,0,1,.12,1c2.18-5-.65-7.06-1.92-7.71a2.82,2.82,0,0,0,0,.51s-.24-.29-.62-.66C82.86,415.29,85,418.28,86.42,419.78Z" /><path class="cls-5" d="M97.57,332.52a1.83,1.83,0,0,1,.63,0A5,5,0,0,0,95,328.61a4.77,4.77,0,0,0-.51,5.67A4.43,4.43,0,0,1,97.57,332.52Z" /><path class="cls-5" d="M96.32,336.66a9.44,9.44,0,0,1,1.4-.79h0a7,7,0,0,0,.47-3.33,1.83,1.83,0,0,0-.63,0,4.43,4.43,0,0,0-3.12,1.76A9.57,9.57,0,0,0,96.32,336.66Z" /><path class="cls-5" d="M100.21,400.81l-.19-.11-.09,2.22A5.75,5.75,0,0,0,100.21,400.81Z" /><path class="cls-5" d="M97.2,399.76c0,.08,0,.15,0,.23a6.09,6.09,0,0,1-1.25-.14c-3.07.73-4.1,4.83-4.1,4.83,5.61,2.07,7.48.06,8.09-1.76l.09-2.22A6.72,6.72,0,0,0,97.2,399.76Z" /><path class="cls-5" d="M99.12,337.44a8.85,8.85,0,0,1,3.08-1.23,5.34,5.34,0,0,1,2.18-3.14l.12-.06a4.39,4.39,0,0,0-5.09.76A8.32,8.32,0,0,1,99.12,337.44Z" /><path class="cls-5" d="M97.78,336.19a9.34,9.34,0,0,1,.08,1.48c8.42,2.82,7.82-4.06,7.82-4.06a9.4,9.4,0,0,0-1.18-.6l-.12.06a5.34,5.34,0,0,0-2.18,3.14,8.85,8.85,0,0,0-3.08,1.23,8.32,8.32,0,0,0,.29-3.67A7.53,7.53,0,0,0,97.78,336.19Z" /><path class="cls-5" d="M86.42,419.78c-3.6,2.42-1.76,5.63-1.76,5.63,3.12-.65,3.33-3.77,3.22-5.39-.11.25-.21.5-.34.77A10.37,10.37,0,0,1,86.42,419.78Z" /><path class="cls-5" d="M86.42,419.78a10.37,10.37,0,0,0,1.12,1c.13-.27.23-.52.34-.77a8.51,8.51,0,0,0-.12-1A9.7,9.7,0,0,0,86.42,419.78Z" /><path class="cls-5" d="M97.78,336.19c0-.18,0-.29,0-.31a13.3,13.3,0,0,1-.63,1.45,8.5,8.5,0,0,1-.78-.67c-3.52,2.42-1.7,5.59-1.7,5.59,2.65-.55,3.2-2.89,3.24-4.58l-.55-.19A8.93,8.93,0,0,1,97.78,336.19Z" /><path class="cls-5" d="M97.73,335.88h0a9.44,9.44,0,0,0-1.4.79,8.5,8.5,0,0,0,.78.67A13.3,13.3,0,0,0,97.73,335.88Z" /><path class="cls-5" d="M97.78,336.19a8.93,8.93,0,0,0-.47,1.29l.55.19A9.34,9.34,0,0,0,97.78,336.19Z" /><path class="cls-5" d="M197,330.85a4.48,4.48,0,0,0-1.11-.57c-1.41,2.08-.46,4,.6,5.26C196.67,334,196.84,332.41,197,330.85Z" /><path class="cls-5" d="M198.11,337c1.44-3.62,0-5.39-1.09-6.18-.18,1.56-.35,3.12-.51,4.69A9,9,0,0,0,198.11,337Z" /><path class="cls-5" d="M133.58,333.65c-5.41-2.14-7.08,4.52-7.08,4.52,4.35,1.6,6.45.74,7.46-.57A7.2,7.2,0,0,1,133.58,333.65Z" /><path class="cls-6" d="M113,339c-2.42-4.83-7.27-1.08-7.27-1.08C110,343.47,113,339,113,339Z" /><path class="cls-6" d="M137.16,331.72a5.35,5.35,0,0,0-1.06-1.26,5.57,5.57,0,0,0-1.69,1.44A4.64,4.64,0,0,1,137.16,331.72Z" /><path class="cls-6" d="M136.74,337.05h.34a5.82,5.82,0,0,0,.34-.65C137,336.79,136.74,337.05,136.74,337.05Z" /><path class="cls-6" d="M134.87,334.29a5.26,5.26,0,0,1-.91,3.31,10.93,10.93,0,0,0,.95,2,10.78,10.78,0,0,0,2.17-2.56h-.34s.3-.26.68-.65a4.79,4.79,0,0,0-.26-4.68,4.64,4.64,0,0,0-2.75.18,4.6,4.6,0,0,0-.83,1.75A9.62,9.62,0,0,1,134.87,334.29Z" /><path class="cls-6" d="M134.87,334.29a9.62,9.62,0,0,0-1.29-.64,7.2,7.2,0,0,0,.38,4A5.26,5.26,0,0,0,134.87,334.29Z" /><path class="cls-6" d="M190.89,342c-6.5-4.57-10.19,3.66-10.19,3.66C190.17,349.84,190.89,342,190.89,342Z" /><path class="cls-6" d="M172.67,335.82c-.06.21-.12.42-.16.63a20.38,20.38,0,0,1,2.21.84A8.38,8.38,0,0,1,172.67,335.82Z" /><path class="cls-6" d="M178.47,346.42c4-11.07-4.82-12.69-4.82-12.69a8.89,8.89,0,0,0-1,2.09,8.38,8.38,0,0,0,2.05,1.47,20.38,20.38,0,0,0-2.21-.84C171.23,342.4,178.47,346.42,178.47,346.42Z" /><path class="cls-6" d="M97.2,399.76c.64-6.12-4-4.56-4-4.56-1.07,3.33,1.24,4.34,2.78,4.65A4.31,4.31,0,0,1,97.2,399.76Z" /><path class="cls-6" d="M97.2,399.76a4.31,4.31,0,0,0-1.26.09,6.09,6.09,0,0,0,1.25.14C97.2,399.91,97.19,399.84,97.2,399.76Z" /><path class="cls-6" d="M93.36,353.33c-6.72,4.24-.54,10.81-.54,10.81C100.33,357,93.36,353.33,93.36,353.33Z" /><path class="cls-6" d="M83.24,363.08l-.2.06a3.05,3.05,0,0,1,.54.08A1.63,1.63,0,0,1,83.24,363.08Z" /><path class="cls-6" d="M79.1,366.06c5.05,7.18,13.57.44,13.57.44-4-3.67-7.15-4.06-9.43-3.42a1.63,1.63,0,0,0,.34.14,3.05,3.05,0,0,0-.54-.08A8,8,0,0,0,79.1,366.06Z" /><path class="cls-4" d="M211.54,646.07l0-.27-.11-.08Z" /><path class="cls-4" d="M204.22,644.44c-3.54-2.37-2.21-7.57-2.21-7.57s-2.65,2.65-3.23,0c-.72-3.2.75-4.36,1.56-4.74-1.4.48-5.32,1.61-5.68-.56-.39-2.33.56-3.51,1.77-4.1H103.34V581.68l-.2-4.91a6.8,6.8,0,0,1-2.82,1c.63,6.12-4,4.55-4,4.55-1.07-3.32,1.23-4.34,2.78-4.65-3.07-.72-4.1-4.83-4.1-4.83,5.61-2.06,7.48,0,8.09,1.76l-1.22-29.8c-2.41-1.19-3.24-4.52-3.24-4.52a14.44,14.44,0,0,1,3-.8l-.06-1.41-9,2.48c.4,1.84.8,3.34.8,3.34s-3.78-2.34-5.36-.57-.06,2.65,1.1,3.57c-.76-.48-2.53-1.08-4.83,1.25C82.34,550,86,550.81,86,550.81s-5.1,1.69-5.17,6c0,2.26,4.06,3.86,4.06,3.86s-2.25,2.57-.8,5.41c1.08,2.09,3.29.34,4.36-.72-2.47-3.13-.38-6.12,1.08-7.62-3.6-2.42-1.75-5.62-1.75-5.62,3.12.65,3.33,3.77,3.22,5.39,2.18,5-.65,7.06-1.92,7.71a13.57,13.57,0,0,0,1.06,4,5.8,5.8,0,0,0,.29.61,2.78,2.78,0,0,0-2.32.09c-2.53,1.3-1.19,4.43-1.19,4.43s-5.17-2.08-4.56,3c.29,2.46,6.5,3.31,6.5,3.31s-6.38-.8-5.47,4.64c.36,2.17,4.29,1,5.68.56-.81.38-2.27,1.54-1.56,4.74.31,1.4,1.19,1.32,2,.93a9.79,9.79,0,0,0,1.17,4.37s-3.83-2.46-4.41.38A3.54,3.54,0,0,0,88.06,600s-7.66.81-6.78,3.29,5.25,3.65,5.25,3.65-7.8,2.83-3.83,6a5.07,5.07,0,0,0,3.45,1.39,8,8,0,0,1-3.93-2.91c5-7.18,13.56-.44,13.56-.44-4,3.67-7.14,4.06-9.43,3.41l0,0c-2.53,1.31-1.2,4.43-1.2,4.43s-5.17-2.08-4.56,3c.3,2.46,6.5,3.31,6.5,3.31s-6.38-.8-5.47,4.64c.36,2.18,4.29,1,5.68.56-.81.38-2.27,1.54-1.56,4.74.59,2.65,3.24,0,3.24,0s-1.34,5.2,2.2,7.57c1.88,1.25,5.44-1.33,5.44-1.33a6.33,6.33,0,0,0,1,1.84,9.82,9.82,0,0,1,1.86-2.39c-3.52-2.41-1.69-5.58-1.69-5.58,2.65.55,3.2,2.89,3.24,4.57,8.41-2.81,7.81,4.07,7.81,4.07a8.65,8.65,0,0,1-1.18.59c1.91,1.08,5.33-1.38,5.33-1.38s1,3.28,4.11,3.59c2,.2,2.09-1.91,1.87-3.43a5.57,5.57,0,0,0,1.15-.76,16.42,16.42,0,0,0,1.71.53,5.71,5.71,0,0,0,1.51,2.24c1.92,1.91,2.72-1.75,2.72-1.75s1.69,5.09,6,5.17c2.26,0,3.86-4.06,3.86-4.06a5.88,5.88,0,0,0,1.71,1,4.64,4.64,0,0,1-.83-1.76c-5.41,2.14-7.08-4.51-7.08-4.51,4.35-1.6,6.45-.75,7.46.56a10.62,10.62,0,0,1,.95-2,10.59,10.59,0,0,1,2.17,2.56,12.28,12.28,0,0,0,3.39-.8l-.12.29c-1.05,2.7,4.3,2.06,4.3,2.06s-3.43,2.6-2.12,5.13,4.43,1.19,4.43,1.19-2.08,5.17,3,4.56c2.46-.29,3.3-6.5,3.3-6.5s-.8,6.38,4.65,5.47c2.17-.36,1-4.28.55-5.68.39.81,1.54,2.28,4.74,1.57,2.65-.59,0-3.24,0-3.24s5.77,2.46,6.36-2.87a11.46,11.46,0,0,0,2.92-.58c-1.28-6,6-10,6-10,4,11.06-4.82,12.69-4.82,12.69a9.08,9.08,0,0,1-1-2.09c-1.21,1.21-2.13,3.1,0,5.4,1.49,1.63,4.17-1.45,5.08-2.61-.47.76-1.08,2.53,1.25,4.83,1.93,1.91,2.73-1.75,2.73-1.75s1.69,5.1,5.95,5.17c2.26,0,3.86-4.06,3.86-4.06s2.57,2.25,5.41.8c1.27-.65,1.12-1.72.57-2.7a5.5,5.5,0,0,0,.81-.55s1.6,4.1,3.86,4.06c3.59-.06,5.35-3.68,5.82-4.82a6,6,0,0,1-1.42-2.32S206.1,645.69,204.22,644.44ZM102.36,567.72c-5.39-2.43-3.1-6.37-3.1-6.37C103.51,562.23,102.36,567.72,102.36,567.72Zm-4-27.34c3.55,6.92-2.14,8.72-2.14,8.72C92.57,544.62,98.38,540.38,98.38,540.38Zm-1.9,83.77c-6.72-4.24-.55-10.82-.55-10.82C103.45,620.47,96.48,624.15,96.48,624.15Zm12.32,15.41c4.33-5.55,7.28-1.08,7.28-1.08C113.66,643.3,108.8,639.56,108.8,639.56Zm75-7.73c9.48-4.19,10.2,3.65,10.2,3.65C187.51,640.06,183.81,631.83,183.81,631.83Zm16.33,14.8a4.22,4.22,0,0,1-1.11.56c-1.41-2.07-.46-4,.59-5.25a9.22,9.22,0,0,1,1.61-1.49C202.67,644.07,201.26,645.84,200.14,646.63Z" /><path class="cls-4" d="M100.89,641.29a1.41,1.41,0,0,1,0,.3,7,7,0,0,1,.48,3.34,1.51,1.51,0,0,0,1.2-1.22A7.87,7.87,0,0,1,100.89,641.29Z" /><path class="cls-4" d="M140.27,645.76a4.35,4.35,0,0,0,1-.36c2.08-1.06.37-3.24-.69-4.33A4.78,4.78,0,0,1,140.27,645.76Z" /><path class="cls-5" d="M98.38,540.38s-5.81,4.24-2.14,8.72C96.24,549.1,101.93,547.3,98.38,540.38Z" /><path class="cls-5" d="M103.34,545.16v-5.77a7.79,7.79,0,0,0-1.72,0l.21,5.32A4.06,4.06,0,0,0,103.34,545.16Z" /><path class="cls-5" d="M101.83,544.75l-.21-5.32a14.44,14.44,0,0,0-3,.8S99.42,543.56,101.83,544.75Z" /><path class="cls-5" d="M102.36,567.72s1.15-5.49-3.1-6.37C99.26,561.35,97,565.29,102.36,567.72Z" /><path class="cls-5" d="M89.07,564.66s-.24.28-.62.65c0,0,0,.07.07.1a5.78,5.78,0,0,0,.56-.24A2.79,2.79,0,0,1,89.07,564.66Z" /><path class="cls-5" d="M91,557.46a8.12,8.12,0,0,1-.12,1,8.89,8.89,0,0,1-1.35-.75c-1.46,1.5-3.55,4.49-1.08,7.62.38-.37.62-.65.62-.65a2.79,2.79,0,0,0,0,.51C90.35,564.52,93.18,562.44,91,557.46Z" /><path class="cls-5" d="M97.57,643.2a4.75,4.75,0,0,0,.51,5.66,5,5,0,0,0,3.24-3.93,2.13,2.13,0,0,1-.63,0A4.47,4.47,0,0,1,97.57,643.2Z" /><path class="cls-5" d="M100.84,641.59v0a9.2,9.2,0,0,1-1.41-.8,9.82,9.82,0,0,0-1.86,2.39,4.47,4.47,0,0,0,3.12,1.76,2.13,2.13,0,0,0,.63,0A7,7,0,0,0,100.84,641.59Z" /><path class="cls-5" d="M103.34,576.37a5.76,5.76,0,0,0-.29-1.82l.09,2.22.19-.1S103.34,576.56,103.34,576.37Z" /><path class="cls-5" d="M95,572.79s1,4.11,4.1,4.83a7,7,0,0,1,1.24-.14c0,.09,0,.16,0,.24a6.8,6.8,0,0,0,2.82-1l-.09-2.22C102.44,572.74,100.57,570.73,95,572.79Z" /><path class="cls-5" d="M105.32,641.27a9.26,9.26,0,0,1-3.09-1.23,8.3,8.3,0,0,1,.29,3.67,4.38,4.38,0,0,0,5.09.75l-.12-.06A5.35,5.35,0,0,1,105.32,641.27Z" /><path class="cls-5" d="M101,639.8a8.14,8.14,0,0,1-.09,1.49,7.87,7.87,0,0,0,1.63,2.42,8.3,8.3,0,0,0-.29-3.67,9.26,9.26,0,0,0,3.09,1.23,5.35,5.35,0,0,0,2.17,3.13l.12.06a8.65,8.65,0,0,0,1.18-.59S109.39,637,101,639.8Z" /><path class="cls-5" d="M90.65,556.69c.14.27.24.51.35.77.11-1.62-.1-4.74-3.22-5.39,0,0-1.85,3.2,1.75,5.62A10.64,10.64,0,0,1,90.65,556.69Z" /><path class="cls-5" d="M91,557.46c-.11-.26-.21-.5-.35-.77a10.64,10.64,0,0,0-1.12,1,8.89,8.89,0,0,0,1.35.75A8.12,8.12,0,0,0,91,557.46Z" /><path class="cls-5" d="M100.84,641.59a1.41,1.41,0,0,0,0-.3,10.46,10.46,0,0,1-.47-1.3l.56-.19c0-1.68-.59-4-3.24-4.57,0,0-1.83,3.17,1.69,5.58.45-.42.78-.67.78-.67A10.81,10.81,0,0,1,100.84,641.59Z" /><path class="cls-5" d="M100.84,641.59a10.81,10.81,0,0,0-.63-1.45s-.33.25-.78.67a9.2,9.2,0,0,0,1.41.8Z" /><path class="cls-5" d="M100.89,641.29a8.14,8.14,0,0,0,.09-1.49l-.56.19A10.46,10.46,0,0,0,100.89,641.29Z" /><path class="cls-5" d="M199,647.19a4.22,4.22,0,0,0,1.11-.56c-.18-1.56-.35-3.13-.52-4.69C198.57,643.2,197.62,645.12,199,647.19Z" /><path class="cls-5" d="M199.62,641.94c.17,1.56.34,3.13.52,4.69,1.12-.79,2.53-2.56,1.09-6.18A9.22,9.22,0,0,0,199.62,641.94Z" /><path class="cls-5" d="M137.08,639.87c-1-1.31-3.11-2.16-7.46-.56,0,0,1.67,6.65,7.08,4.51A7.2,7.2,0,0,1,137.08,639.87Z" /><path class="cls-6" d="M108.8,639.56s4.86,3.74,7.28-1.08C116.08,638.48,113.13,634,108.8,639.56Z" /><path class="cls-6" d="M139.86,640.43s.3.25.68.64c-.1-.21-.21-.42-.34-.64A3,3,0,0,1,139.86,640.43Z" /><path class="cls-6" d="M137.53,645.58a5.63,5.63,0,0,0,1.68,1.43,5.15,5.15,0,0,0,1.06-1.25A4.69,4.69,0,0,1,137.53,645.58Z" /><path class="cls-6" d="M138,637.87a10.62,10.62,0,0,0-.95,2,5.37,5.37,0,0,1,.91,3.32,8.45,8.45,0,0,1-1.29.63,4.64,4.64,0,0,0,.83,1.76,4.69,4.69,0,0,0,2.74.18,4.78,4.78,0,0,0,.27-4.69c-.38-.39-.68-.64-.68-.64a3,3,0,0,0,.34,0A10.59,10.59,0,0,0,138,637.87Z" /><path class="cls-6" d="M137.08,639.87a7.2,7.2,0,0,0-.38,4,8.45,8.45,0,0,0,1.29-.63A5.37,5.37,0,0,0,137.08,639.87Z" /><path class="cls-6" d="M183.81,631.83s3.7,8.23,10.2,3.65C194,635.48,193.29,627.64,183.81,631.83Z" /><path class="cls-6" d="M175.63,641c0,.21.1.42.16.63a8.43,8.43,0,0,1,2-1.47A19.68,19.68,0,0,1,175.63,641Z" /><path class="cls-6" d="M181.59,631.06s-7.24,4-6,10a19.68,19.68,0,0,0,2.2-.84,8.43,8.43,0,0,0-2,1.47,9.08,9.08,0,0,0,1,2.09S185.63,642.12,181.59,631.06Z" /><path class="cls-6" d="M99.06,577.62c-1.55.31-3.85,1.33-2.78,4.65,0,0,4.67,1.57,4-4.55A4.3,4.3,0,0,1,99.06,577.62Z" /><path class="cls-6" d="M99.06,577.62a4.3,4.3,0,0,0,1.26.1c0-.08,0-.15,0-.24A7,7,0,0,0,99.06,577.62Z" /><path class="cls-6" d="M95.93,613.33s-6.17,6.58.55,10.82C96.48,624.15,103.45,620.47,95.93,613.33Z" /><path class="cls-6" d="M86.15,614.33l.2.06.35-.14A2.35,2.35,0,0,1,86.15,614.33Z" /><path class="cls-6" d="M95.78,611s-8.51-6.74-13.56.44a8,8,0,0,0,3.93,2.91,2.35,2.35,0,0,0,.55-.08l-.35.14C88.64,615,91.81,614.65,95.78,611Z" /><path class="cls-3" d="M405.74,354.14v-.33a2.79,2.79,0,0,1-.31.24Z" /><path class="cls-3" d="M291.43,348.33l-7.64-.12c0,.18,7.5.55,7.5.55S291.38,348.47,291.43,348.33Z" /><path class="cls-3" d="M405.8,354.16c.27-.5.48-.81.48-.81s-.2.19-.53.46v.33Z" /><path class="cls-4" d="M207.65,338.82l-.09.85c.17-.13.35-.27.54-.4Z" /><path class="cls-4" d="M208.2,332a4.73,4.73,0,0,1,.22-.62c0,.24,0,.49-.08.73,1.2,1,2.42,2.93,1.17,6.35,0,0,0,.12.05.3.89-2,3.19-5.38,7.9-2.58,0,0,.6,6.88-7.81,4.07,0,1.53-.5,3.59-2.56,4.37-.25,2.64-.49,5.28-.7,7.92l-15-.13c-.27,4.56,4.59,2.62,4.59,2.62a5.34,5.34,0,0,0-.34,1.51h8.6a9.28,9.28,0,0,1,.89-.64,6.62,6.62,0,0,1,.91.64h10.3s189.71-2.91,189.44-2.41l15,2.41a5.34,5.34,0,0,1,.34-1.51s-5.17,2.08-4.56-3c.29-2.46,6.5-3.3,6.5-3.3s-6.38.8-5.47-4.64a1.39,1.39,0,0,1,1.1-1.16c-1.16,0-2.61-.67-4.25-2.78,0,0,4.66-3.58,7.12.83a6.4,6.4,0,0,1,.15-2.19c.58-2.65,3.23,0,3.23,0a9.72,9.72,0,0,1-.24-1.86,5.69,5.69,0,0,0-1.52-.16,10.54,10.54,0,0,0,1.66-1.83,6.41,6.41,0,0,1,.67-1.91,1.59,1.59,0,0,0-1-1.24c-2.84-1.45-5.41.8-5.41.8s-1.6-4.1-3.86-4.06c-4.26.07-5.95,5.17-5.95,5.17s-.8-3.66-2.73-1.75c-2.33,2.3-1.72,4.07-1.24,4.83-.77-1-2.79-3.29-4.29-3a1.89,1.89,0,0,0-.78-.67c-2.83-1.45-5.41.79-5.41.79s-1.6-4.1-3.86-4.06c-4.25.08-5.95,5.18-5.95,5.18s-.79-3.67-2.72-1.76c-2.33,2.31-1.72,4.07-1.25,4.84a15.44,15.44,0,0,0-1.36-1.52,5.17,5.17,0,0,0-.71-1.1c-1.58-1.91-7.26.74-7.26.74s5.8-2.78,2.09-6.87c-1.48-1.63-4.17,1.45-5.08,2.61.47-.76,1.08-2.53-1.25-4.83-1.93-1.91-2.72,1.75-2.72,1.75s-1.69-5.1-5.95-5.17c-2.26,0-3.86,4.06-3.86,4.06s-2.58-2.25-5.41-.8a1.73,1.73,0,0,0-.85.84,4.78,4.78,0,0,0-2.4.3s2.08-5.17-3-4.56c-2.46.29-3.3,6.5-3.3,6.5s.8-6.38-4.64-5.47c-2.18.36-1,4.28-.56,5.68-.39-.81-1.54-2.28-4.74-1.56a1.72,1.72,0,0,0-.9.43,10.32,10.32,0,0,0-3.05,2.72h0c.46-.81.92-2.52-1.31-4.72-1.08-1.07-1.8-.4-2.23.41,1.11.83,2.36,2.6,1,6.09,0,0-4.44-3-2.33-6.52-.89-1.48-2.52-3.36-5.09-3.4-2.26,0-3.86,4.06-3.86,4.06a6.29,6.29,0,0,0-.81-.55c.54-1,.69-2.05-.58-2.7-2.83-1.45-5.41.79-5.41.79s-1.6-4.09-3.86-4.06c-4.26.08-5.95,5.18-5.95,5.18s-.79-3.66-2.72-1.76c-2.33,2.31-1.72,4.07-1.25,4.84-.91-1.16-3.6-4.24-5.08-2.61-3.71,4.09,2.09,6.87,2.09,6.87a16.26,16.26,0,0,0-5.12-1.42c-.6-5.33-6.36-2.87-6.36-2.87s2.65-2.65,0-3.24c-3.2-.71-4.36.75-4.74,1.57.48-1.4,1.62-5.32-.56-5.69-5.44-.9-4.64,5.48-4.64,5.48s-.85-6.21-3.31-6.51c-5.1-.61-3,4.56-3,4.56s-3.12-1.33-4.43,1.2a3,3,0,0,0,.24,3,5.35,5.35,0,0,1,2.26.42,4.84,4.84,0,0,1,2.51-3.19s4.79,3.81-1.19,9.14a11.41,11.41,0,0,1-.95-2c-1,1.25-2.92,2.08-6.9.75,0,1.69-.59,4-3.24,4.58,0,0-1.82-3.18,1.7-5.59-1.09-1-2.9-3.13-2.53-5.58a6,6,0,0,0-1.74,1s-1.6-4.1-3.86-4.06c-4.25.07-5.95,5.17-5.95,5.17s-.79-3.66-2.72-1.75a5.78,5.78,0,0,0-1.5,2.24,16,16,0,0,0-1.72.53,5.52,5.52,0,0,0-1.14-.76c.22-1.52.18-3.64-1.87-3.43-3.17.31-4.12,3.59-4.12,3.59s-3.56-2.58-5.44-1.32a5.27,5.27,0,0,0-2.17,3.13,9.12,9.12,0,0,0-3.09,1.23s1.63-5.23-1.54-4.92a4.78,4.78,0,0,0-3.77,2.77l0,0A4.06,4.06,0,0,1,208.2,332Zm205.89-1.28s4.79,3.82-1.18,9.15C412.91,339.9,408.91,333.69,414.09,330.75Zm-14.85,7.05a1.55,1.55,0,0,0,.08.23H399Zm-39.19-4.63c-1.15-1.24-2.37-3.31-.85-5.55,0,0,3.52,1,2.66,5.2,2,0,6.21.45,6.57,4.85,0,0-4.58,2.27-7.05-3.32l-.24-.18c.76,2.07,1.44,6.09-3.89,7.35C357.25,341.52,352,337,360.05,333.17Zm-9.22-1.43.17.16h-.24A1,1,0,0,0,350.83,331.74Zm-14.62,4.54s4.79,3.81-1.18,9.14C335,345.42,331,339.22,336.21,336.28Zm-19.86,2.27s-.71,7.85-10.19,3.65C306.16,342.2,309.86,334,316.35,338.55Zm-17.23-8.27s8.86,1.63,4.81,12.69C303.93,343,294.43,337.7,299.12,330.28Zm-42.41,8.53Zm-32,2.79s-2.95,4.47-7.28-1.08C217.47,340.52,222.32,336.78,224.75,341.6Z" /><path class="cls-4" d="M252.89,330.8a1.61,1.61,0,0,0-.21-1.89A5.08,5.08,0,0,1,252.89,330.8Z" /><path class="cls-4" d="M419.64,342.8a12.2,12.2,0,0,1,3.68.73,3,3,0,0,1-1.64-2.19A4.17,4.17,0,0,1,419.64,342.8Z" /><path class="cls-4" d="M207.84,331.77l0,0,0,0Z" /><path class="cls-4" d="M208.42,331.41a4.73,4.73,0,0,0-.22.62l.14.11C208.37,331.9,208.39,331.65,208.42,331.41Z" /><path class="cls-4" d="M207.09,344.65a4.5,4.5,0,0,1-.68.2,4.1,4.1,0,0,1,1.15-5.18l.09-.85c-1.37-1.45-3.15-4.13-1.33-7-1.21-.65-3.09-1.41-4.29-.61-3.54,2.37-2.21,7.57-2.21,7.57s-2.65-2.65-3.23,0c-.72,3.2.75,4.35,1.56,4.74-1.4-.48-5.32-1.62-5.68.56-.91,5.44,5.47,4.64,5.47,4.64s-6.21.84-6.5,3.3c0,.15,0,.28,0,.41l15,.13C206.6,349.93,206.84,347.29,207.09,344.65Z" /><polygon class="cls-4" points="256.7 338.81 256.7 338.81 256.71 338.81 256.7 338.81" /><path class="cls-4" d="M350.83,331.74a1,1,0,0,1-.07.15H351Z" /><path class="cls-4" d="M399.32,338a1.55,1.55,0,0,1-.08-.23L399,338Z" /><path class="cls-4" d="M397.39,355.46a3.26,3.26,0,0,1,.32.81,2.82,2.82,0,0,1,1.23.3H400A27.6,27.6,0,0,1,397.39,355.46Z" /><path class="cls-4" d="M352.57,349.36l0,0h0Z" /><path class="cls-5" d="M252.12,328.5a2.62,2.62,0,0,1,.56.41,5.13,5.13,0,0,0-3.06-3.06,5.2,5.2,0,0,0-1.17,2.47A4.53,4.53,0,0,1,252.12,328.5Z" /><path class="cls-5" d="M250.76,333.48a4.5,4.5,0,0,1,.81,0,7.68,7.68,0,0,1,.81-.42h0a8,8,0,0,0,.5-2.32A8.91,8.91,0,0,1,250.76,333.48Z" /><path class="cls-5" d="M251,333.9a5.44,5.44,0,0,1,.59-.37,4.5,4.5,0,0,0-.81,0,8.91,8.91,0,0,0,2.13-2.68,5.08,5.08,0,0,0-.21-1.89,2.62,2.62,0,0,0-.56-.41,4.53,4.53,0,0,0-3.67-.18C248.08,330.77,249.89,332.87,251,333.9Z" /><path class="cls-5" d="M254.48,334.28l-.12-.29c-1-2.7,4.31-2.06,4.31-2.06a8.27,8.27,0,0,1-1.88-2.14c-2.39.12-3.72,2.21-4.35,3.63q0,.12,0,.27A16.61,16.61,0,0,1,254.48,334.28Z" /><path class="cls-5" d="M258.67,331.93s-5.35-.64-4.31,2.06l.12.29a16.61,16.61,0,0,0-2-.59,8.72,8.72,0,0,1,.05,1.22c4,1.33,5.94.5,6.9-.75a7.2,7.2,0,0,1-.37-4,5.35,5.35,0,0,0-2.26-.42A8.27,8.27,0,0,0,258.67,331.93Z" /><path class="cls-5" d="M252.34,333.66a2.44,2.44,0,0,1,.1-.24c0-.17-.05-.28-.05-.3-.06.16-.13.33-.2.5Z" /><path class="cls-5" d="M252.34,333.66l-.15,0c-.13.31-.26.62-.43.95a8.5,8.5,0,0,1-.78-.67c-3.52,2.41-1.7,5.59-1.7,5.59,2.65-.56,3.2-2.89,3.24-4.58l-.55-.19A8.17,8.17,0,0,1,252.34,333.66Z" /><path class="cls-5" d="M251.57,333.53l.62.09c.07-.17.14-.34.2-.5h0A7.68,7.68,0,0,0,251.57,333.53Z" /><path class="cls-5" d="M252.19,333.62l-.62-.09a5.44,5.44,0,0,0-.59.37,8.5,8.5,0,0,0,.78.67C251.93,334.24,252.06,333.93,252.19,333.62Z" /><path class="cls-5" d="M252.47,333.69q0-.15,0-.27a2.44,2.44,0,0,0-.1.24Z" /><path class="cls-5" d="M252.47,333.69l-.13,0a8.17,8.17,0,0,0-.37,1.06l.55.19A8.72,8.72,0,0,0,252.47,333.69Z" /><path class="cls-5" d="M207.8,331.75a4.8,4.8,0,0,0-1.05-.53,5.68,5.68,0,0,0-.43.61c.68.38,1.15.71,1.15.71A5.59,5.59,0,0,1,207.8,331.75Z" /><path class="cls-5" d="M208.2,332a4.06,4.06,0,0,0-.36-.26c.17.38.26.63.26.63S208.13,332.25,208.2,332Z" /><path class="cls-5" d="M208.1,339.27a8.74,8.74,0,0,1,1.41-.8v0c1.25-3.42,0-5.35-1.17-6.35-.24,2.23-.46,4.45-.69,6.68Z" /><path class="cls-5" d="M207.65,338.82c.23-2.23.45-4.45.69-6.68l-.14-.11c-.07.22-.1.37-.1.37s-.09-.25-.26-.63l0,0a5.59,5.59,0,0,0-.33.79s-.47-.33-1.15-.71C204.5,334.69,206.28,337.37,207.65,338.82Z" /><path class="cls-5" d="M209.65,340.28c8.41,2.81,7.81-4.07,7.81-4.07-4.71-2.8-7,.57-7.9,2.58A9.16,9.16,0,0,1,209.65,340.28Z" /><path class="cls-5" d="M208.1,339.27c-.19.13-.37.27-.54.4-.16,1.66-.32,3.32-.47,5,2.06-.78,2.52-2.84,2.56-4.37l-.56-.19a8.78,8.78,0,0,1,.47-1.3c0-.18-.05-.29-.05-.3a13,13,0,0,1-.63,1.45S208.55,339.69,208.1,339.27Z" /><path class="cls-5" d="M206.41,344.85a4.5,4.5,0,0,0,.68-.2c.15-1.66.31-3.32.47-5A4.1,4.1,0,0,0,206.41,344.85Z" /><path class="cls-5" d="M208.1,339.27c.45.42.78.67.78.67a13,13,0,0,0,.63-1.45v0A8.74,8.74,0,0,0,208.1,339.27Z" /><path class="cls-5" d="M209.65,340.28a9.16,9.16,0,0,0-.09-1.49,8.78,8.78,0,0,0-.47,1.3Z" /><path class="cls-5" d="M361.38,334.35c2.47,5.59,7.05,3.32,7.05,3.32-.36-4.4-4.58-4.88-6.57-4.85a10,10,0,0,1-.46,1.55Z" /><path class="cls-5" d="M357.25,341.52c5.33-1.26,4.65-5.28,3.89-7.35a9.21,9.21,0,0,1-1.09-1C352,337,357.25,341.52,357.25,341.52Z" /><path class="cls-5" d="M361.14,334.17l.24.18a11.35,11.35,0,0,1-.54-1.47,7.6,7.6,0,0,1,1-.06c.86-4.18-2.66-5.2-2.66-5.2-1.52,2.24-.3,4.31.85,5.55l.53-.25A8.43,8.43,0,0,1,361.14,334.17Z" /><path class="cls-5" d="M361.38,334.35l0,0a10,10,0,0,0,.46-1.55,7.6,7.6,0,0,0-1,.06A11.35,11.35,0,0,0,361.38,334.35Z" /><path class="cls-5" d="M361.14,334.17a8.43,8.43,0,0,0-.56-1.25l-.53.25A9.21,9.21,0,0,0,361.14,334.17Z" /><path class="cls-5" d="M322.6,327.49a4.13,4.13,0,0,0-1.22-.65c-.05.07-.08.15-.13.22a9.88,9.88,0,0,1,.86,1.77A5.7,5.7,0,0,1,322.6,327.49Z" /><path class="cls-5" d="M323.58,333.58c1.38-3.49.13-5.26-1-6.09a5.7,5.7,0,0,0-.49,1.34,9.88,9.88,0,0,0-.86-1.77C319.14,330.56,323.58,333.58,323.58,333.58Z" /><path class="cls-6" d="M421.68,341.34a3.29,3.29,0,0,1-.07-.36c-2.46-4.41-7.12-.83-7.12-.83,1.64,2.11,3.09,2.77,4.25,2.78a3.55,3.55,0,0,1,.9-.13A4.17,4.17,0,0,0,421.68,341.34Z" /><path class="cls-6" d="M414.09,330.75c-5.18,2.94-1.18,9.15-1.18,9.15C418.88,334.57,414.09,330.75,414.09,330.75Z" /><path class="cls-6" d="M336.21,336.28c-5.18,2.94-1.18,9.14-1.18,9.14C341,340.09,336.21,336.28,336.21,336.28Z" /><path class="cls-6" d="M224.75,341.6c-2.43-4.82-7.28-1.08-7.28-1.08C221.8,346.07,224.75,341.6,224.75,341.6Z" /><path class="cls-6" d="M259.42,334.16a11.41,11.41,0,0,0,.95,2c6-5.33,1.19-9.14,1.19-9.14a4.84,4.84,0,0,0-2.51,3.19,10.11,10.11,0,0,1,1.29.63A5.34,5.34,0,0,1,259.42,334.16Z" /><path class="cls-6" d="M259.42,334.16a5.34,5.34,0,0,0,.92-3.32,10.11,10.11,0,0,0-1.29-.63A7.2,7.2,0,0,0,259.42,334.16Z" /><path class="cls-6" d="M316.35,338.55c-6.49-4.58-10.19,3.65-10.19,3.65C315.64,346.4,316.35,338.55,316.35,338.55Z" /><path class="cls-6" d="M303.93,343c4.05-11.06-4.81-12.69-4.81-12.69C294.43,337.7,303.93,343,303.93,343Z" /><path class="cls-6" d="M205.15,355.93a9.28,9.28,0,0,0-.89.64h1.8A6.62,6.62,0,0,0,205.15,355.93Z" /><path class="cls-3" d="M487.66,348.26s-.18.11-.5.26h.34Z" /><path class="cls-3" d="M516.6,348.33l-7.64-.12c0,.18,7.5.55,7.5.55S516.55,348.47,516.6,348.33Z" /><path class="cls-4" d="M600,329.39c-1.48-1.63-5.09,1.36-6,2.52.47-.76,1.08-2.53-1.25-4.83-1.93-1.91-2.72,1.75-2.72,1.75s-1.69-5.1-5.95-5.17c-2.26,0-3.86,4.06-3.86,4.06s-2.58-2.25-5.41-.8a1.73,1.73,0,0,0-.85.84,4.78,4.78,0,0,0-2.4.3s2.08-5.17-3-4.56c-2.46.29-3.3,6.5-3.3,6.5s.8-6.38-4.65-5.47c-2.17.36-1,4.28-.55,5.68-.39-.81-1.54-2.28-4.74-1.56a1.72,1.72,0,0,0-.9.43,10.32,10.32,0,0,0-3,2.72h0c.46-.81.92-2.52-1.31-4.72-1.08-1.07-1.8-.4-2.23.41,1.11.83,2.36,2.6,1,6.09,0,0-4.44-3-2.33-6.52-.89-1.48-2.52-3.36-5.09-3.4-2.26,0-3.86,4.06-3.86,4.06a6.29,6.29,0,0,0-.81-.55c.54-1,.69-2.05-.58-2.7-2.83-1.45-5.41.79-5.41.79s-1.6-4.09-3.86-4.06c-4.26.08-5.95,5.18-5.95,5.18s-.79-3.66-2.72-1.76c-2.33,2.31-1.72,4.07-1.25,4.84-.91-1.16-3.6-4.24-5.08-2.61-3.71,4.09,2.09,6.87,2.09,6.87a16.26,16.26,0,0,0-5.12-1.42c-.6-5.33-6.36-2.87-6.36-2.87s2.65-2.65,0-3.24c-3.2-.71-4.36.75-4.74,1.57.48-1.4,1.62-5.32-.56-5.69-5.44-.9-4.64,5.48-4.64,5.48s-.85-6.21-3.31-6.51c-5.1-.61-3,4.56-3,4.56s-3.12-1.33-4.43,1.2a3,3,0,0,0,.24,3,5.35,5.35,0,0,1,2.26.42,4.84,4.84,0,0,1,2.51-3.19s4.79,3.81-1.19,9.14a11,11,0,0,1-.94-2c-1,1.25-2.93,2.08-6.91.75,0,1.69-.59,4-3.24,4.58,0,0-1.82-3.18,1.7-5.59-1.09-1-2.9-3.13-2.53-5.58a6,6,0,0,0-1.74,1s-1.6-4.1-3.86-4.06c-4.25.07-5.95,5.17-5.95,5.17s-.79-3.66-2.72-1.75a5.78,5.78,0,0,0-1.5,2.24,16,16,0,0,0-1.72.53,5.52,5.52,0,0,0-1.14-.76c.22-1.52.18-3.64-1.87-3.43-3.17.31-4.12,3.59-4.12,3.59s-3.56-2.58-5.44-1.32a5.27,5.27,0,0,0-2.17,3.13,9.12,9.12,0,0,0-3.09,1.23s1.63-5.23-1.54-4.92a4.79,4.79,0,0,0-3.79,2.8c1.3.83,3.15,2.79,1.71,6.74,0,0,0,.12.05.3.89-2,3.19-5.38,7.9-2.58,0,0,.6,6.88-7.81,4.07,0,1.49-.48,3.48-2.41,4.31a7.48,7.48,0,0,1,.74,1.62c1.63,4.81-6.46,3-6.46,3s3,3.36,2.43,5.92-7.48-.91-7.48-.91a4,4,0,0,1,.43,2.38h7.36a9.28,9.28,0,0,1,.89-.64,6.62,6.62,0,0,1,.91.64h10.3L600,352ZM442.64,340.52s4.85-3.74,7.28,1.08C449.92,341.6,447,346.07,442.64,340.52Zm39.23-1.71h0ZM529.1,343s-9.5-5.27-4.81-12.69C524.29,330.28,533.15,331.91,529.1,343Zm2.23-.77s3.7-8.23,10.19-3.65C541.52,338.55,540.81,346.4,531.33,342.2Zm28.87,3.22s-4-6.2,1.18-9.14C561.38,336.28,566.17,340.09,560.2,345.42Zm15.73-13.53a1,1,0,0,0,.07-.15l.17.16Zm10.62,2.46-.24-.18c.76,2.07,1.44,6.09-3.89,7.35,0,0-5.21-4.54,2.8-8.35-1.15-1.24-2.37-3.31-.85-5.55,0,0,3.52,1,2.66,5.2,2,0,6.21.45,6.57,4.85C593.6,337.67,589,339.94,586.55,334.35Z" /><path class="cls-4" d="M478.06,330.8a1.61,1.61,0,0,0-.21-1.89A5.3,5.3,0,0,1,478.06,330.8Z" /><path class="cls-4" d="M424.89,334.94a9.36,9.36,0,0,0-.14,2,16.83,16.83,0,0,1,2.95.91c4.57,1.82.59,5.26.59,5.26a3,3,0,0,1,2.82.13,4.26,4.26,0,0,1,2.16-4c-1.36-1.28-3.81-4.25-1.78-7.44-1.21-.65-3.09-1.41-4.29-.61a5,5,0,0,0-1.64,1.81A3.07,3.07,0,0,1,424.89,334.94Z" /><path class="cls-4" d="M425.56,333a6.41,6.41,0,0,0-.67,1.91A3.07,3.07,0,0,0,425.56,333Z" /><path class="cls-4" d="M421.64,354.19s6.88,3.46,7.48.91-2.43-5.92-2.43-5.92,8.09,1.84,6.46-3a7.48,7.48,0,0,0-.74-1.62,5,5,0,0,1-.83.26,4.44,4.44,0,0,1-.47-1.62,3,3,0,0,0-2.82-.13s4-3.44-.59-5.26a16.83,16.83,0,0,0-2.95-.91,9.72,9.72,0,0,0,.24,1.86s-2.65-2.65-3.23,0a6.4,6.4,0,0,0-.15,2.19c.05.09.11.16.15.25l-.08.11a3,3,0,0,0,1.64,2.19,12.2,12.2,0,0,0-3.68-.73,3.26,3.26,0,0,1-.9.13,1.39,1.39,0,0,0-1.1,1.16c-.91,5.44,5.47,4.64,5.47,4.64s-6.21.84-6.5,3.3c-.61,5.11,4.56,3,4.56,3a5.34,5.34,0,0,0-.34,1.51h1.24A4,4,0,0,0,421.64,354.19Z" /><path class="cls-4" d="M418.74,342.93a3.26,3.26,0,0,0,.9-.13A3.55,3.55,0,0,0,418.74,342.93Z" /><path class="cls-4" d="M421.76,341.23c0-.09-.1-.16-.15-.25a3.29,3.29,0,0,0,.07.36Z" /><polygon class="cls-4" points="481.88 338.81 481.87 338.81 481.88 338.81 481.88 338.81" /><path class="cls-4" d="M576,331.74a1,1,0,0,1-.07.15h.24Z" /><path class="cls-4" d="M577.74,349.36l0,0h0Z" /><path class="cls-5" d="M477.29,328.5a2.62,2.62,0,0,1,.56.41,5.13,5.13,0,0,0-3.06-3.06,5.2,5.2,0,0,0-1.17,2.47A4.53,4.53,0,0,1,477.29,328.5Z" /><path class="cls-5" d="M475.93,333.48a4.5,4.5,0,0,1,.81,0,7.68,7.68,0,0,1,.81-.42h0a8,8,0,0,0,.5-2.32A8.91,8.91,0,0,1,475.93,333.48Z" /><path class="cls-5" d="M476.15,333.9a5.44,5.44,0,0,1,.59-.37,4.5,4.5,0,0,0-.81,0,8.91,8.91,0,0,0,2.13-2.68,5.3,5.3,0,0,0-.21-1.89,2.62,2.62,0,0,0-.56-.41,4.53,4.53,0,0,0-3.67-.18C473.25,330.77,475.06,332.87,476.15,333.9Z" /><path class="cls-5" d="M479.65,334.28l-.12-.29c-1-2.7,4.31-2.06,4.31-2.06a8.27,8.27,0,0,1-1.88-2.14c-2.39.12-3.72,2.21-4.35,3.63q0,.12,0,.27A16.61,16.61,0,0,1,479.65,334.28Z" /><path class="cls-5" d="M483.84,331.93s-5.35-.64-4.31,2.06l.12.29a16.61,16.61,0,0,0-2-.59,8.72,8.72,0,0,1,.05,1.22c4,1.33,5.94.5,6.91-.75a7.11,7.11,0,0,1-.38-4,5.35,5.35,0,0,0-2.26-.42A8.27,8.27,0,0,0,483.84,331.93Z" /><path class="cls-5" d="M477.51,333.66a2.44,2.44,0,0,1,.1-.24c0-.17-.05-.28-.05-.3l-.2.5Z" /><path class="cls-5" d="M477.51,333.66l-.15,0c-.13.31-.26.62-.43.95a8.5,8.5,0,0,1-.78-.67c-3.52,2.41-1.7,5.59-1.7,5.59,2.65-.56,3.2-2.89,3.24-4.58l-.55-.19A8.17,8.17,0,0,1,477.51,333.66Z" /><path class="cls-5" d="M476.74,333.53l.62.09.2-.5h0A7.68,7.68,0,0,0,476.74,333.53Z" /><path class="cls-5" d="M477.36,333.62l-.62-.09a5.44,5.44,0,0,0-.59.37,8.5,8.5,0,0,0,.78.67C477.1,334.24,477.23,333.93,477.36,333.62Z" /><path class="cls-5" d="M477.64,333.69q0-.15,0-.27a2.44,2.44,0,0,0-.1.24Z" /><path class="cls-5" d="M477.64,333.69l-.13,0a8.17,8.17,0,0,0-.37,1.06l.55.19A8.72,8.72,0,0,0,477.64,333.69Z" /><path class="cls-5" d="M433,331.75a4.8,4.8,0,0,0-1.05-.53,5.68,5.68,0,0,0-.43.61c.68.38,1.15.71,1.15.71A5.59,5.59,0,0,1,433,331.75Z" /><path class="cls-5" d="M433.27,339.27a8.74,8.74,0,0,1,1.41-.8v0c1.44-3.95-.41-5.91-1.71-6.74a5.59,5.59,0,0,0-.33.79s-.47-.33-1.15-.71C429.46,335,431.91,338,433.27,339.27Z" /><path class="cls-5" d="M434.82,340.28c8.41,2.81,7.81-4.07,7.81-4.07-4.71-2.8-7,.57-7.9,2.58A9.16,9.16,0,0,1,434.82,340.28Z" /><path class="cls-5" d="M432.41,344.59c1.93-.83,2.37-2.82,2.41-4.31l-.56-.19a8.78,8.78,0,0,1,.47-1.3c0-.18-.05-.29-.05-.3a13,13,0,0,1-.63,1.45s-.33-.25-.78-.67a4.26,4.26,0,0,0-2.16,4A4.06,4.06,0,0,1,432.41,344.59Z" /><path class="cls-5" d="M432.41,344.59a4.06,4.06,0,0,0-1.3-1.36,4.44,4.44,0,0,0,.47,1.62A5,5,0,0,0,432.41,344.59Z" /><path class="cls-5" d="M434.68,338.49v0a8.74,8.74,0,0,0-1.41.8c.45.42.78.67.78.67A13,13,0,0,0,434.68,338.49Z" /><path class="cls-5" d="M434.82,340.28a9.16,9.16,0,0,0-.09-1.49,8.78,8.78,0,0,0-.47,1.3Z" /><path class="cls-5" d="M586.55,334.35c2.47,5.59,7.05,3.32,7.05,3.32-.36-4.4-4.58-4.88-6.57-4.85a10,10,0,0,1-.46,1.55Z" /><path class="cls-5" d="M582.42,341.52c5.33-1.26,4.65-5.28,3.89-7.35a9.21,9.21,0,0,1-1.09-1C577.21,337,582.42,341.52,582.42,341.52Z" /><path class="cls-5" d="M586.31,334.17l.24.18a11.35,11.35,0,0,1-.54-1.47,7.6,7.6,0,0,1,1-.06c.86-4.18-2.66-5.2-2.66-5.2-1.52,2.24-.3,4.31.85,5.55l.53-.25A8.43,8.43,0,0,1,586.31,334.17Z" /><path class="cls-5" d="M586.55,334.35l0,0a10,10,0,0,0,.46-1.55,7.6,7.6,0,0,0-1,.06A11.35,11.35,0,0,0,586.55,334.35Z" /><path class="cls-5" d="M586.31,334.17a8.43,8.43,0,0,0-.56-1.25l-.53.25A9.21,9.21,0,0,0,586.31,334.17Z" /><path class="cls-5" d="M547.77,327.49a4.13,4.13,0,0,0-1.22-.65c0,.07-.08.15-.13.22a9.88,9.88,0,0,1,.86,1.77A5.7,5.7,0,0,1,547.77,327.49Z" /><path class="cls-5" d="M548.75,333.58c1.38-3.49.13-5.26-1-6.09a5.7,5.7,0,0,0-.49,1.34,9.88,9.88,0,0,0-.86-1.77C544.31,330.56,548.75,333.58,548.75,333.58Z" /><path class="cls-6" d="M561.38,336.28c-5.18,2.94-1.18,9.14-1.18,9.14C566.17,340.09,561.38,336.28,561.38,336.28Z" /><path class="cls-6" d="M449.92,341.6c-2.43-4.82-7.28-1.08-7.28-1.08C447,346.07,449.92,341.6,449.92,341.6Z" /><path class="cls-6" d="M484.6,334.16a11,11,0,0,0,.94,2c6-5.33,1.19-9.14,1.19-9.14a4.84,4.84,0,0,0-2.51,3.19,10.11,10.11,0,0,1,1.29.63A5.37,5.37,0,0,1,484.6,334.16Z" /><path class="cls-6" d="M484.6,334.16a5.37,5.37,0,0,0,.91-3.32,10.11,10.11,0,0,0-1.29-.63A7.11,7.11,0,0,0,484.6,334.16Z" /><path class="cls-6" d="M541.52,338.55c-6.49-4.58-10.19,3.65-10.19,3.65C540.81,346.4,541.52,338.55,541.52,338.55Z" /><path class="cls-6" d="M529.1,343c4-11.06-4.81-12.69-4.81-12.69C519.6,337.7,529.1,343,529.1,343Z" /><path class="cls-6" d="M430.32,355.93a9.28,9.28,0,0,0-.89.64h1.8A6.62,6.62,0,0,0,430.32,355.93Z" /><path class="cls-4" d="M211.08,645.43l.32.29c-.12-.36-.19-.64-.19-.64A3.27,3.27,0,0,1,211.08,645.43Z" /><path class="cls-4" d="M423.87,634.31a3,3,0,0,1,1.64-2.18,11.93,11.93,0,0,1-3.68.72A4.24,4.24,0,0,1,423.87,634.31Z" /><path class="cls-4" d="M425.42,638.89a5.69,5.69,0,0,0,1.52-.16,9.56,9.56,0,0,1,.24-1.86s-2.65,2.65-3.23,0a6.4,6.4,0,0,1-.15-2.19c-2.46,4.41-7.12.83-7.12.83,1.64-2.11,3.09-2.77,4.25-2.78a1.41,1.41,0,0,1-1.1-1.16c-.39-2.33.56-3.51,1.77-4.1H224.51l-6.29,0v0h-8.5c.52,6.11,1.1,12.22,1.78,18.33a4.33,4.33,0,0,0,2.27.91c3.17.31,1.54-4.92,1.54-4.92a9.12,9.12,0,0,0,3.09,1.23,5.3,5.3,0,0,0,2.17,3.13c1.88,1.26,5.44-1.32,5.44-1.32s.95,3.28,4.12,3.59c2.05.2,2.09-1.91,1.87-3.43a5.52,5.52,0,0,0,1.14-.76,16,16,0,0,0,1.72.53,5.85,5.85,0,0,0,1.5,2.24c1.93,1.91,2.72-1.75,2.72-1.75s1.7,5.09,5.95,5.17c2.26,0,3.86-4.06,3.86-4.06a6.15,6.15,0,0,0,1.74,1c-.37-2.44,1.44-4.55,2.53-5.57-3.52-2.42-1.7-5.59-1.7-5.59,2.65.55,3.2,2.89,3.24,4.58,4-1.33,5.94-.5,6.9.75a11.76,11.76,0,0,1,.95-2c6,5.33,1.19,9.15,1.19,9.15a4.84,4.84,0,0,1-2.51-3.19,5.51,5.51,0,0,1-2.26.42,3,3,0,0,0-.24,3c1.31,2.53,4.43,1.19,4.43,1.19s-2.08,5.17,3,4.56c2.46-.29,3.31-6.5,3.31-6.5s-.8,6.38,4.64,5.47c2.18-.36,1-4.28.56-5.68.38.81,1.54,2.28,4.74,1.57,2.65-.59,0-3.24,0-3.24s5.76,2.45,6.36-2.87a16.55,16.55,0,0,0,5.12-1.42s-5.8,2.78-2.09,6.87c1.48,1.63,4.17-1.45,5.08-2.61-.47.76-1.08,2.53,1.25,4.83,1.93,1.91,2.72-1.75,2.72-1.75s1.69,5.1,5.95,5.17c2.26,0,3.86-4.06,3.86-4.06s2.58,2.25,5.41.8c1.27-.65,1.12-1.72.58-2.7a6.29,6.29,0,0,0,.81-.55s1.6,4.1,3.86,4.06a6.25,6.25,0,0,0,5.09-3.4c-2.11-3.51,2.33-6.52,2.33-6.52,1.38,3.49.13,5.26-1,6.09.43.8,1.15,1.48,2.23.41,2.23-2.21,1.77-3.91,1.31-4.73h0a10.32,10.32,0,0,0,3.05,2.72,1.8,1.8,0,0,0,.9.43c3.2.71,4.35-.75,4.74-1.56-.48,1.39-1.62,5.32.55,5.68,5.45.91,4.65-5.47,4.65-5.47s.84,6.21,3.3,6.5c5.11.61,3-4.56,3-4.56a4.91,4.91,0,0,0,2.4.3,1.71,1.71,0,0,0,.85.83c2.83,1.46,5.41-.79,5.41-.79s1.6,4.1,3.86,4.06c4.26-.08,5.95-5.17,5.95-5.17s.79,3.66,2.72,1.75c2.33-2.31,1.72-4.07,1.25-4.83.91,1.15,3.6,4.24,5.08,2.6,3.71-4.08-2.09-6.86-2.09-6.86s5.68,2.65,7.26.74a5.17,5.17,0,0,0,.71-1.1,15.44,15.44,0,0,0,1.36-1.52c-.47.76-1.08,2.53,1.25,4.83,1.93,1.91,2.72-1.75,2.72-1.75s1.7,5.1,5.95,5.17c2.26,0,3.86-4.06,3.86-4.06s2.58,2.25,5.41.8a1.89,1.89,0,0,0,.78-.67c1.5.24,3.52-2.08,4.29-3-.48.76-1.09,2.52,1.24,4.83,1.93,1.91,2.73-1.75,2.73-1.75s1.69,5.09,5.95,5.17c2.26,0,3.86-4.06,3.86-4.06s2.57,2.25,5.41.79a1.56,1.56,0,0,0,1-1.23,6.41,6.41,0,0,1-.67-1.91A10.54,10.54,0,0,0,425.42,638.89Zm-205.76-3.75c4.33-5.55,7.28-1.08,7.28-1.08C224.51,638.88,219.66,635.14,219.66,635.14Zm39.23,1.71Zm42.42,8.52c-4.69-7.42,4.81-12.68,4.81-12.68C310.17,643.75,301.31,645.37,301.31,645.37Zm7-11.92c9.48-4.19,10.19,3.66,10.19,3.66C312.05,641.68,308.35,633.45,308.35,633.45Zm30,5.93c-5.18-2.94-1.18-9.14-1.18-9.14C343.19,635.56,338.4,639.38,338.4,639.38ZM353,643.92a.77.77,0,0,0-.07-.16h.24Zm11-1.08c.86,4.18-2.66,5.19-2.66,5.19-1.52-2.23-.3-4.3.85-5.54-8-3.82-2.8-8.35-2.8-8.35,5.33,1.26,4.65,5.28,3.89,7.34a1.63,1.63,0,0,1,.24-.17c2.47-5.59,7.05-3.32,7.05-3.32C370.26,642.39,366,642.86,364.05,642.84Zm37.38-5-.26-.24h.34A2.25,2.25,0,0,0,401.43,637.86Zm14.85,7c-5.18-2.94-1.19-9.14-1.19-9.14C421.07,641.09,416.28,644.9,416.28,644.9Z" /><path class="cls-4" d="M254.87,646.74a1.6,1.6,0,0,0,.21-1.89A5.27,5.27,0,0,1,254.87,646.74Z" /><path class="cls-4" d="M196.43,627.47c-1.21.59-2.16,1.77-1.77,4.1.36,2.17,4.28,1,5.68.56-.81.38-2.28,1.54-1.56,4.74.58,2.65,3.23,0,3.23,0s-1.33,5.2,2.21,7.57c1.88,1.25,5.44-1.33,5.44-1.33a6,6,0,0,0,1.42,2.32,3.27,3.27,0,0,0,.13-.35s.07.28.19.64l.11.08c2-.54,7.22-5.61-1.78-18.33Z" /><polygon class="cls-4" points="258.89 636.85 258.9 636.84 258.89 636.85 258.89 636.85" /><path class="cls-4" d="M353,643.92l.17-.16H353A.77.77,0,0,1,353,643.92Z" /><path class="cls-4" d="M401.17,637.62l.26.24a2.25,2.25,0,0,1,.08-.24Z" /><path class="cls-5" d="M254.31,647.15a4.45,4.45,0,0,1-3.67.18,5.19,5.19,0,0,0,1.17,2.48,5.12,5.12,0,0,0,3.06-3.07A2.08,2.08,0,0,1,254.31,647.15Z" /><path class="cls-5" d="M253.76,642.13a4.5,4.5,0,0,1-.81,0,9,9,0,0,1,2.13,2.67,7.9,7.9,0,0,0-.5-2.31h0Q254.14,642.34,253.76,642.13Z" /><path class="cls-5" d="M253,642.18a4.5,4.5,0,0,0,.81,0c-.22-.12-.41-.25-.59-.37-1.09,1-2.9,3.13-2.53,5.57a4.45,4.45,0,0,0,3.67-.18,2.08,2.08,0,0,0,.56-.41,5.27,5.27,0,0,0,.21-1.89A9,9,0,0,0,253,642.18Z" /><path class="cls-5" d="M260.86,643.73s-5.35.64-4.31-2.06l.12-.29a16.61,16.61,0,0,1-2,.59c0,.1,0,.19,0,.26.63,1.42,2,3.52,4.35,3.64A8.07,8.07,0,0,1,260.86,643.73Z" /><path class="cls-5" d="M261.24,645.45a7.2,7.2,0,0,1,.37-4c-1-1.25-2.92-2.08-6.9-.75a8.72,8.72,0,0,1-.05,1.22,16.61,16.61,0,0,0,2-.59l-.12.29c-1,2.7,4.31,2.06,4.31,2.06a8.07,8.07,0,0,0-1.88,2.14A5.51,5.51,0,0,0,261.24,645.45Z" /><path class="cls-5" d="M254.38,642c.07.17.14.34.2.51,0,0,0-.13,0-.31a2.29,2.29,0,0,1-.1-.23Z" /><path class="cls-5" d="M254.38,642l.15,0a8.17,8.17,0,0,1-.37-1.06l.55-.19c0-1.69-.59-4-3.24-4.58,0,0-1.82,3.17,1.7,5.59a8.5,8.5,0,0,1,.78-.67C254.12,641.42,254.25,641.73,254.38,642Z" /><path class="cls-5" d="M253.76,642.13q.38.21.81.42h0c-.06-.17-.13-.34-.2-.51C254.14,642.08,253.94,642.11,253.76,642.13Z" /><path class="cls-5" d="M254.38,642c-.13-.3-.26-.61-.43-.94a8.5,8.5,0,0,0-.78.67c.18.12.37.25.59.37S254.14,642.08,254.38,642Z" /><path class="cls-5" d="M254.53,642a2.29,2.29,0,0,0,.1.23c0-.07,0-.16,0-.26Z" /><path class="cls-5" d="M254.53,642l.13,0a8.72,8.72,0,0,0,.05-1.22l-.55.19A8.17,8.17,0,0,0,254.53,642Z" /><path class="cls-5" d="M363.57,641.31l0,0a9.44,9.44,0,0,1,.46,1.55c2,0,6.21-.45,6.57-4.85C370.62,638,366,635.72,363.57,641.31Z" /><path class="cls-5" d="M363.33,641.48c.76-2.06,1.44-6.08-3.89-7.34,0,0-5.21,4.53,2.8,8.35A9.49,9.49,0,0,1,363.33,641.48Z" /><path class="cls-5" d="M363.57,641.31a1.63,1.63,0,0,0-.24.17,8.29,8.29,0,0,1-.56,1.26l-.53-.25c-1.15,1.24-2.37,3.31-.85,5.54,0,0,3.52-1,2.66-5.19-.62,0-1-.06-1-.06A12.31,12.31,0,0,1,363.57,641.31Z" /><path class="cls-5" d="M363.57,641.31a12.31,12.31,0,0,0-.55,1.47s.41.05,1,.06a9.44,9.44,0,0,0-.46-1.55Z" /><path class="cls-5" d="M363.33,641.48a9.49,9.49,0,0,0-1.09,1l.53.25A8.29,8.29,0,0,0,363.33,641.48Z" /><path class="cls-5" d="M323.44,648.6c.05.07.08.14.13.22a4.13,4.13,0,0,0,1.22-.65,5.7,5.7,0,0,1-.49-1.34A9.88,9.88,0,0,1,323.44,648.6Z" /><path class="cls-5" d="M325.77,642.08s-4.44,3-2.33,6.52a9.88,9.88,0,0,0,.86-1.77,5.7,5.7,0,0,0,.49,1.34C325.9,647.34,327.15,645.57,325.77,642.08Z" /><path class="cls-6" d="M421.83,632.85a3.16,3.16,0,0,1-.9-.12c-1.16,0-2.61.67-4.25,2.78,0,0,4.66,3.58,7.12-.83,0-.13,0-.25.07-.37A4.24,4.24,0,0,0,421.83,632.85Z" /><path class="cls-6" d="M415.09,635.76s-4,6.2,1.19,9.14C416.28,644.9,421.07,641.09,415.09,635.76Z" /><path class="cls-6" d="M337.22,630.24s-4,6.2,1.18,9.14C338.4,639.38,343.19,635.56,337.22,630.24Z" /><path class="cls-6" d="M219.66,635.14s4.85,3.74,7.28-1.08C226.94,634.06,224,629.59,219.66,635.14Z" /><path class="cls-6" d="M262.53,644.81a9.05,9.05,0,0,1-1.29.64,4.84,4.84,0,0,0,2.51,3.19s4.79-3.82-1.19-9.15a11.76,11.76,0,0,0-.95,2A5.31,5.31,0,0,1,262.53,644.81Z" /><path class="cls-6" d="M261.24,645.45a9.05,9.05,0,0,0,1.29-.64,5.31,5.31,0,0,0-.92-3.31A7.2,7.2,0,0,0,261.24,645.45Z" /><path class="cls-6" d="M308.35,633.45s3.7,8.23,10.19,3.66C318.54,637.11,317.83,629.26,308.35,633.45Z" /><path class="cls-6" d="M301.31,645.37s8.86-1.62,4.81-12.68C306.12,632.69,296.62,638,301.31,645.37Z" /><path class="cls-4" d="M480,646.74a1.6,1.6,0,0,0,.21-1.89A5.27,5.27,0,0,1,480,646.74Z" /><path class="cls-4" d="M435.46,636.39a4.27,4.27,0,0,1-2.16-4,3,3,0,0,1-2.82.14s4,3.44-.59,5.26a18,18,0,0,1-2.95.91,9.4,9.4,0,0,0,.14,2,3.07,3.07,0,0,1,.67,1.91,5,5,0,0,0,1.64,1.81c1.2.8,3.08,0,4.29-.62C431.65,640.64,434.1,637.67,435.46,636.39Z" /><path class="cls-4" d="M449.68,627.47l-6.29,0v0h-8a2.6,2.6,0,0,1,0,2,7.48,7.48,0,0,1-.74,1.62c1.93.83,2.37,2.82,2.41,4.31,8.41-2.81,7.81,4.07,7.81,4.07-4.71,2.79-7-.57-7.9-2.58,0,.18-.05.29-.05.3,1.44,4-.41,5.91-1.71,6.74a4.83,4.83,0,0,0,3.79,2.8c3.17.31,1.54-4.92,1.54-4.92a9.12,9.12,0,0,0,3.09,1.23,5.3,5.3,0,0,0,2.17,3.13c1.88,1.26,5.44-1.32,5.44-1.32s.95,3.28,4.12,3.59c2.05.2,2.09-1.91,1.87-3.43a5.52,5.52,0,0,0,1.14-.76,16,16,0,0,0,1.72.53,5.85,5.85,0,0,0,1.5,2.24c1.93,1.91,2.72-1.75,2.72-1.75s1.7,5.09,5.95,5.17c2.26,0,3.86-4.06,3.86-4.06a6.15,6.15,0,0,0,1.74,1c-.37-2.44,1.44-4.55,2.53-5.57-3.52-2.42-1.7-5.59-1.7-5.59,2.65.55,3.2,2.89,3.24,4.58,4-1.33,5.94-.5,6.9.75a11.76,11.76,0,0,1,1-2c6,5.33,1.19,9.15,1.19,9.15a4.84,4.84,0,0,1-2.51-3.19,5.51,5.51,0,0,1-2.26.42,3,3,0,0,0-.24,3c1.31,2.53,4.43,1.19,4.43,1.19s-2.08,5.17,3,4.56c2.46-.29,3.31-6.5,3.31-6.5s-.8,6.38,4.64,5.47c2.18-.36,1-4.28.56-5.68.38.81,1.54,2.28,4.74,1.57,2.65-.59,0-3.24,0-3.24s5.76,2.45,6.36-2.87a16.55,16.55,0,0,0,5.12-1.42s-5.8,2.78-2.09,6.87c1.48,1.63,4.17-1.45,5.08-2.61-.47.76-1.08,2.53,1.25,4.83,1.93,1.91,2.72-1.75,2.72-1.75s1.69,5.1,6,5.17c2.26,0,3.86-4.06,3.86-4.06s2.58,2.25,5.41.8c1.27-.65,1.12-1.72.58-2.7a6.29,6.29,0,0,0,.81-.55s1.6,4.1,3.86,4.06a6.25,6.25,0,0,0,5.09-3.4c-2.11-3.51,2.33-6.52,2.33-6.52,1.38,3.49.13,5.26-1,6.09.43.8,1.15,1.48,2.23.41,2.23-2.21,1.77-3.91,1.31-4.73h0a10.32,10.32,0,0,0,3.05,2.72,1.8,1.8,0,0,0,.9.43c3.2.71,4.35-.75,4.74-1.56-.48,1.39-1.62,5.32.55,5.68,5.45.91,4.65-5.47,4.65-5.47s.84,6.21,3.3,6.5c5.11.61,3-4.56,3-4.56a4.91,4.91,0,0,0,2.4.3,1.71,1.71,0,0,0,.85.83c2.83,1.46,5.41-.79,5.41-.79s1.6,4.1,3.86,4.06c4.26-.08,6-5.17,6-5.17s.79,3.66,2.72,1.75c2.33-2.31,1.72-4.07,1.25-4.83.91,1.15,2.47,4,3.81,2.25V627Zm-4.85,7.67c4.33-5.55,7.28-1.08,7.28-1.08C449.68,638.88,444.83,635.14,444.83,635.14Zm39.23,1.71Zm42.42,8.52c-4.69-7.42,4.81-12.68,4.81-12.68C535.34,643.75,526.48,645.37,526.48,645.37Zm7-11.92c9.48-4.19,10.19,3.66,10.19,3.66C537.22,641.68,533.52,633.45,533.52,633.45Zm30.05,5.93c-5.18-2.94-1.18-9.14-1.18-9.14C568.36,635.56,563.57,639.38,563.57,639.38Zm14.62,4.54a.77.77,0,0,0-.07-.16h.24Zm11-1.08c.86,4.18-2.66,5.19-2.66,5.19-1.52-2.23-.3-4.3.85-5.54-8-3.82-2.8-8.35-2.8-8.35,5.33,1.26,4.65,5.28,3.89,7.34a1.63,1.63,0,0,1,.24-.17c2.47-5.59,7-3.32,7-3.32C595.43,642.39,591.21,642.86,589.22,642.84Z" /><path class="cls-4" d="M427.08,640.72a6.41,6.41,0,0,0,.67,1.91A3.07,3.07,0,0,0,427.08,640.72Z" /><path class="cls-4" d="M419.83,631.57a1.41,1.41,0,0,0,1.1,1.16,2.92,2.92,0,0,1,.9.12,11.93,11.93,0,0,0,3.68-.72,3,3,0,0,0-1.64,2.18l.08.12c0,.09-.1.16-.15.25a6.4,6.4,0,0,0,.15,2.19c.58,2.65,3.23,0,3.23,0a9.56,9.56,0,0,0-.24,1.86,18,18,0,0,0,2.95-.91c4.57-1.82.59-5.26.59-5.26a3,3,0,0,0,2.82-.14,4.35,4.35,0,0,1,.47-1.61,4.24,4.24,0,0,1,.83.26,7.48,7.48,0,0,0,.74-1.62,2.6,2.6,0,0,0,0-2H421.6C420.39,628.06,419.44,629.24,419.83,631.57Z" /><path class="cls-4" d="M420.93,632.73a3.16,3.16,0,0,0,.9.12A2.92,2.92,0,0,0,420.93,632.73Z" /><path class="cls-4" d="M423.87,634.31c0,.12-.05.24-.07.37.05-.09.11-.16.15-.25Z" /><polygon class="cls-4" points="484.07 636.84 484.06 636.85 484.06 636.85 484.07 636.84" /><path class="cls-4" d="M578.36,643.76h-.24a.77.77,0,0,1,.07.16Z" /><path class="cls-5" d="M479.48,647.15a4.45,4.45,0,0,1-3.67.18,5.19,5.19,0,0,0,1.17,2.48,5.12,5.12,0,0,0,3.06-3.07A2.08,2.08,0,0,1,479.48,647.15Z" /><path class="cls-5" d="M478.93,642.13a4.5,4.5,0,0,1-.81,0,9,9,0,0,1,2.13,2.67,7.9,7.9,0,0,0-.5-2.31h0Q479.3,642.34,478.93,642.13Z" /><path class="cls-5" d="M478.12,642.18a4.5,4.5,0,0,0,.81,0c-.22-.12-.41-.25-.59-.37-1.09,1-2.9,3.13-2.53,5.57a4.45,4.45,0,0,0,3.67-.18,2.08,2.08,0,0,0,.56-.41,5.27,5.27,0,0,0,.21-1.89A9,9,0,0,0,478.12,642.18Z" /><path class="cls-5" d="M486,643.73s-5.35.64-4.31-2.06l.12-.29a16.61,16.61,0,0,1-2,.59c0,.1,0,.19,0,.26.63,1.42,2,3.52,4.35,3.64A8.07,8.07,0,0,1,486,643.73Z" /><path class="cls-5" d="M486.41,645.45a7.2,7.2,0,0,1,.37-4c-1-1.25-2.92-2.08-6.9-.75a8.72,8.72,0,0,1-.05,1.22,16.61,16.61,0,0,0,2-.59l-.12.29c-1,2.7,4.31,2.06,4.31,2.06a8.07,8.07,0,0,0-1.88,2.14A5.51,5.51,0,0,0,486.41,645.45Z" /><path class="cls-5" d="M479.54,642a5.49,5.49,0,0,1,.21.51s0-.13.05-.31a2.29,2.29,0,0,1-.1-.23Z" /><path class="cls-5" d="M479.54,642l.16,0a8.17,8.17,0,0,1-.37-1.06l.55-.19c0-1.69-.59-4-3.24-4.58,0,0-1.82,3.17,1.7,5.59a8.5,8.5,0,0,1,.78-.67C479.29,641.42,479.42,641.73,479.54,642Z" /><path class="cls-5" d="M478.93,642.13q.38.21.81.42h0a5.49,5.49,0,0,0-.21-.51A5.9,5.9,0,0,1,478.93,642.13Z" /><path class="cls-5" d="M479.54,642c-.12-.3-.25-.61-.42-.94a8.5,8.5,0,0,0-.78.67c.18.12.37.25.59.37A5.9,5.9,0,0,0,479.54,642Z" /><path class="cls-5" d="M479.7,642a2.29,2.29,0,0,0,.1.23c0-.07,0-.16,0-.26Z" /><path class="cls-5" d="M479.7,642l.13,0a8.72,8.72,0,0,0,.05-1.22l-.55.19A8.17,8.17,0,0,0,479.7,642Z" /><path class="cls-5" d="M433.68,643.82a5.78,5.78,0,0,0,.43.62,4.8,4.8,0,0,0,1.05-.53,5.39,5.39,0,0,1-.33-.8A11.73,11.73,0,0,1,433.68,643.82Z" /><path class="cls-5" d="M436.87,637.17h0a8.75,8.75,0,0,1-1.41-.79c-1.36,1.28-3.81,4.25-1.78,7.43a11.73,11.73,0,0,0,1.15-.71,5.39,5.39,0,0,0,.33.8C436.46,643.08,438.31,641.12,436.87,637.17Z" /><path class="cls-5" d="M436.92,636.87c.89,2,3.19,5.37,7.9,2.58,0,0,.6-6.88-7.81-4.07A9.24,9.24,0,0,1,436.92,636.87Z" /><path class="cls-5" d="M433.3,632.42a4.27,4.27,0,0,0,2.16,4c.45-.42.78-.67.78-.67a14.19,14.19,0,0,1,.63,1.45s0-.12.05-.3a8.78,8.78,0,0,1-.47-1.3l.56-.19c0-1.49-.48-3.48-2.41-4.31A3.93,3.93,0,0,1,433.3,632.42Z" /><path class="cls-5" d="M433.3,632.42a3.93,3.93,0,0,0,1.3-1.35,4.24,4.24,0,0,0-.83-.26A4.35,4.35,0,0,0,433.3,632.42Z" /><path class="cls-5" d="M435.46,636.39a8.75,8.75,0,0,0,1.41.79h0a14.19,14.19,0,0,0-.63-1.45S435.91,636,435.46,636.39Z" /><path class="cls-5" d="M436.92,636.87a9.24,9.24,0,0,0,.09-1.49l-.56.19A8.78,8.78,0,0,0,436.92,636.87Z" /><path class="cls-5" d="M589.22,642.84c2,0,6.21-.45,6.57-4.85,0,0-4.58-2.27-7,3.32l0,0A9.44,9.44,0,0,1,589.22,642.84Z" /><path class="cls-5" d="M587.41,642.49a9.49,9.49,0,0,1,1.09-1c.76-2.06,1.44-6.08-3.89-7.34C584.61,634.14,579.4,638.67,587.41,642.49Z" /><path class="cls-5" d="M587.41,642.49c-1.15,1.24-2.37,3.31-.85,5.54,0,0,3.52-1,2.66-5.19-.62,0-1-.06-1-.06a10.83,10.83,0,0,1,.54-1.47,1.63,1.63,0,0,0-.24.17,8.29,8.29,0,0,1-.56,1.26Z" /><path class="cls-5" d="M589.22,642.84a9.44,9.44,0,0,0-.46-1.55l0,0a10.83,10.83,0,0,0-.54,1.47S588.6,642.83,589.22,642.84Z" /><path class="cls-5" d="M587.41,642.49l.53.25a8.29,8.29,0,0,0,.56-1.26A9.49,9.49,0,0,0,587.41,642.49Z" /><path class="cls-5" d="M548.61,648.6c0,.07.08.14.13.22a4.13,4.13,0,0,0,1.22-.65,5.7,5.7,0,0,1-.49-1.34A9.88,9.88,0,0,1,548.61,648.6Z" /><path class="cls-5" d="M550.94,642.08s-4.44,3-2.33,6.52a9.88,9.88,0,0,0,.86-1.77,5.7,5.7,0,0,0,.49,1.34C551.07,647.34,552.32,645.57,550.94,642.08Z" /><path class="cls-6" d="M563.57,639.38s4.79-3.82-1.18-9.14C562.39,630.24,558.39,636.44,563.57,639.38Z" /><path class="cls-6" d="M444.83,635.14s4.85,3.74,7.28-1.08C452.11,634.06,449.16,629.59,444.83,635.14Z" /><path class="cls-6" d="M487.7,644.81a9.05,9.05,0,0,1-1.29.64,4.84,4.84,0,0,0,2.51,3.19s4.79-3.82-1.19-9.15a11.76,11.76,0,0,0-1,2A5.31,5.31,0,0,1,487.7,644.81Z" /><path class="cls-6" d="M486.41,645.45a9.05,9.05,0,0,0,1.29-.64,5.31,5.31,0,0,0-.92-3.31A7.2,7.2,0,0,0,486.41,645.45Z" /><path class="cls-6" d="M543.71,637.11s-.71-7.85-10.19-3.66C533.52,633.45,537.22,641.68,543.71,637.11Z" /><path class="cls-6" d="M531.29,632.69s-9.5,5.26-4.81,12.68C526.48,645.37,535.34,643.75,531.29,632.69Z" /><path class="cls-4" d="M354.76,626.3l0,0,0,0Z" /><path class="cls-4" d="M579.92,626.32v0l0,0Z" /><path class="cls-4" d="M103.84,433.37l-.5-.27V436A5.68,5.68,0,0,0,103.84,433.37Z" /><path class="cls-4" d="M200.13,626.93s-3.74-.52-5.55-1.9l-14.19.12.15.43-7.65.12a3.6,3.6,0,0,0,0-.49l-21.41.18.15.26s-.18-.11-.5-.26l-45.95.38-1.8-44.09v45.79h93.09A7.49,7.49,0,0,1,200.13,626.93Zm-60.49-1.42H140l.15.27A4.21,4.21,0,0,0,139.64,625.51Zm21.8.31a3.58,3.58,0,0,0,0-.48l7.54-.07.15.43Z" /><path class="cls-4" d="M139.64,625.51a4.21,4.21,0,0,1,.5.27l-.15-.27Z" /><path class="cls-4" d="M161.4,625.34a3.58,3.58,0,0,1,0,.48l7.65-.12-.15-.43Z" /><path class="cls-4" d="M107,544.1s.37-4.3-3.62-4.71v5.77A6.3,6.3,0,0,0,107,544.1Z" /><path class="cls-4" d="M400.2,357.68a6.65,6.65,0,0,1-.2-1.11h-1.06A3.24,3.24,0,0,1,400.2,357.68Z" /><path class="cls-4" d="M264.68,627.4l-.16-.26h-.34C264.5,627.29,264.68,627.4,264.68,627.4Z" /><path class="cls-4" d="M407.94,621.85v-.34l-.3.1A2.79,2.79,0,0,1,407.94,621.85Z" /><path class="cls-4" d="M286,627.45l7.64-.12c-.05-.14-.09-.29-.14-.43l-7.55.06A2.46,2.46,0,0,1,286,627.45Z" /><path class="cls-4" d="M408.47,622.31s-.21-.32-.48-.81h-.06v.34A6.58,6.58,0,0,1,408.47,622.31Z" /><path class="cls-4" d="M194.58,625c1.81,1.38,5.55,1.9,5.55,1.9a7.49,7.49,0,0,0-3.7.54h13.3c-.07-.86-.15-1.71-.22-2.56Z" /><path class="cls-4" d="M354.76,626.3v0l0,0Z" /><path class="cls-4" d="M489.85,627.4l-.16-.26h-.34C489.67,627.29,489.85,627.4,489.85,627.4Z" /><path class="cls-4" d="M511.15,627.45l7.64-.12c0-.14-.09-.29-.14-.43l-7.55.06A2.46,2.46,0,0,1,511.15,627.45Z" /><path class="cls-4" d="M579.92,626.32l0,0,0,0Z" /></g><g id="outline"><polygon class="cls-7" points="600 621.54 107.44 620.86 99 535.66 96.38 537.51 99.67 628.48 600 629 600 621.54" /><polygon class="cls-7" points="600 350 97.18 350.55 97.6 438.52 100.4 438.76 100.51 353.59 600 352 600 350" /></g><g id="DEMO"><polygon class="cls-8" points="600 360 600 352 99 352 99 438.76 110.83 438.76 107.23 360 600 360" /><polygon class="cls-8" points="600 360 600 352 99 352 99 438.76 110.83 438.76 107.23 360 600 360" /><polygon class="cls-8" points="600 619 111.31 616.99 113.47 535.21 99 535.66 102.27 627.08 600 627 600 619" /></g></svg>