<?xml version="1.0" encoding="utf-8"?>
<!-- Generator: Adobe Illustrator 19.2.0, SVG Export Plug-In . SVG Version: 6.00 Build 0)  -->
<!DOCTYPE svg PUBLIC "-//W3C//DTD SVG 1.1//EN" "http://www.w3.org/Graphics/SVG/1.1/DTD/svg11.dtd">
<svg version="1.1" xmlns="http://www.w3.org/2000/svg" xmlns:xlink="http://www.w3.org/1999/xlink" x="0px" y="0px"
	 viewBox="0 0 40 40" enable-background="new 0 0 40 40" xml:space="preserve" width="40" height="40" preserveAspectRatio="none">
<g id="Header_Buttons">
	<path fill="#FFFFFF" d="M22,11.1c-2.8,0.3-5.2-1.1-5.3-4.1c-0.1-2.5,1.7-5.2,4.5-5.4s5.6,1.9,5.8,4.4C27.2,8.9,24.9,10.8,22,11.1z"
		/>
	<path fill="#FFFFFF" d="M13.5,14.6c0,0,11.7-5,11.1,3.3c-0.6,8.3-6,12.9-4.9,14.7c0.7,1,2.9,1.1,2.9,1.1l-0.5,2.1
		c0,0-16.5,3.5-11.6-4.3s6.5-13.2,3.1-14.6c-0.7-0.3-0.7-0.3-0.7-0.3L13.5,14.6z"/>
</g>
</svg>
