<?xml version="1.0" encoding="utf-8"?>
<!-- Generator: Adobe Illustrator 19.2.0, SVG Export Plug-In . SVG Version: 6.00 Build 0)  -->
<!DOCTYPE svg PUBLIC "-//W3C//DTD SVG 1.1//EN" "http://www.w3.org/Graphics/SVG/1.1/DTD/svg11.dtd">
<svg version="1.1" xmlns="http://www.w3.org/2000/svg" xmlns:xlink="http://www.w3.org/1999/xlink" x="0px" y="0px"
	 viewBox="0 0 40 40" enable-background="new 0 0 40 40" xml:space="preserve" width="40" height="40" preserveAspectRatio="none">
<g id="Header_Buttons">
	<g>
		<polygon fill="#FFFFFF" points="33.2,14.4 38.2,9.7 30.6,3.7 25.5,8 		"/>
		<path fill="#FFFFFF" d="M8.3,31.8c-0.1,0-0.1,0-0.1,0L8.3,31.8c0.9-2.8-2.6-3.6-2.6-3.6c0.3-1.3-0.6-2.1-1.6-2.6L3,26.6l-1.2,8.3
			l9.2,0.7l1-1C11.8,32.8,8.3,31.8,8.3,31.8z"/>
		<path fill="#FFFFFF" d="M7.1,27c3,0.3,2.9,2.5,2.7,3.5l0,0c3,0.6,3.6,1.8,3.7,2.5l18.6-17.8l-8.2-6.2L5.5,24.2
			C7.9,25.4,7.1,27,7.1,27z"/>
	</g>
</g>
</svg>
