<svg xmlns="http://www.w3.org/2000/svg" viewBox="0 0 30 30" width="30" height="30" preserveAspectRatio="none"><defs><style>.cls-1{fill:#ffffff;}</style></defs><title>Bookmark</title><g id="Header_Buttons" data-name="Header Buttons"><path class="cls-1" d="M28.22,6.58a12.1,12.1,0,0,0-2-1,74.52,74.52,0,0,1,.56,13L23.43,16.5l-4.82,2.06s.12-.95.25-2.41c-.49,0-1,.1-1.43.18l-.07-1.79A13.84,13.84,0,0,1,19,14.2c.08-1.24.13-2.64.12-4.09a19.14,19.14,0,0,0-1.91.28l-.06-1.9a6.91,6.91,0,0,1,1.9-.65c-.05-1-.15-2-.29-3A11.49,11.49,0,0,0,15,6.48S13.14,3.24,1.93,4.71c0,0,.68,12.08-.69,21.49,0,0,11.38-2.13,13.76,2.06,0,0,5.21-5.43,13.67-1.07A200.22,200.22,0,0,0,28.22,6.58ZM12.84,22.85c-3.18-1.26-6.83-.5-8.3-.26l.27-3a19.12,19.12,0,0,1,8.06.95Zm.09-6.4c-3-1.25-7.54-1-8.1-.93l0-2c4.51-.62,7.21.59,8.14,1.12ZM13,10.74a19.12,19.12,0,0,0-8.22-.49l0-2.52A20.27,20.27,0,0,1,13,8.83ZM25.83,22.53a20.92,20.92,0,0,0-8.18.06l-.06-1.81a22.11,22.11,0,0,1,8.32-.63Z"/><path class="cls-1" d="M20.08,3.07s2-1.94,5,.24a90.92,90.92,0,0,1,.51,12.81L23.36,14.3l-3.28,1.82S20.87,8.35,20.08,3.07Z"/></g></svg>